<?xml version="1.0" standalone="no"?>
<!DOCTYPE svg PUBLIC "-//W3C//DTD SVG 20010904//EN"
 "http://www.w3.org/TR/2001/REC-SVG-20010904/DTD/svg10.dtd">
<svg version="1.0" xmlns="http://www.w3.org/2000/svg"
 width="2198.000000pt" height="1599.000000pt" viewBox="0 0 2198.000000 1599.000000"
 preserveAspectRatio="xMidYMid meet">

<g transform="translate(0.000000,1599.000000) scale(0.100000,-0.100000)"
fill="#000000" stroke="none">
<path d="M19520 15042 c0 -24 4 -29 23 -28 17 1 22 7 22 26 0 18 -6 26 -22 28
-19 3 -23 -1 -23 -26z"/>
<path d="M19660 15045 c0 -20 5 -25 25 -25 20 0 25 5 25 25 0 20 -5 25 -25 25
-20 0 -25 -5 -25 -25z"/>
<path d="M19810 15045 c0 -20 5 -25 25 -25 20 0 25 5 25 25 0 20 -5 25 -25 25
-20 0 -25 -5 -25 -25z"/>
<path d="M19960 15045 c0 -20 5 -25 25 -25 20 0 25 5 25 25 0 20 -5 25 -25 25
-20 0 -25 -5 -25 -25z"/>
<path d="M20104 15048 c1 -17 8 -24 29 -26 23 -3 27 0 27 22 0 22 -5 26 -29
26 -23 0 -28 -4 -27 -22z"/>
<path d="M20250 15045 c0 -16 6 -25 15 -25 9 0 15 9 15 25 0 16 -6 25 -15 25
-9 0 -15 -9 -15 -25z"/>
<path d="M18340 15030 c0 -21 4 -27 18 -25 9 2 20 4 25 4 4 1 7 10 7 21 0 11
-3 20 -7 21 -5 0 -16 2 -25 4 -14 2 -18 -4 -18 -25z"/>
<path d="M18484 15045 c3 -9 6 -21 6 -26 0 -5 12 -9 26 -9 21 0 25 4 22 23 -2
16 -11 23 -32 25 -23 3 -28 0 -22 -13z"/>
<path d="M18637 15053 c-4 -3 -7 -15 -7 -25 0 -13 7 -18 25 -18 20 0 25 5 25
25 0 18 -5 25 -18 25 -10 0 -22 -3 -25 -7z"/>
<path d="M18780 15035 c0 -20 5 -25 25 -25 20 0 25 5 25 25 0 20 -5 25 -25 25
-20 0 -25 -5 -25 -25z"/>
<path d="M18930 15035 c0 -20 5 -25 25 -25 20 0 25 5 25 25 0 20 -5 25 -25 25
-20 0 -25 -5 -25 -25z"/>
<path d="M19076 15051 c-10 -16 5 -41 24 -41 23 0 32 13 24 34 -7 17 -39 22
-48 7z"/>
<path d="M19220 15035 c0 -20 5 -25 25 -25 20 0 25 5 25 25 0 20 -5 25 -25 25
-20 0 -25 -5 -25 -25z"/>
<path d="M19370 15035 c0 -20 5 -25 25 -25 20 0 25 5 25 25 0 20 -5 25 -25 25
-20 0 -25 -5 -25 -25z"/>
<path d="M17166 15042 c-3 -3 -6 -16 -6 -29 0 -18 5 -23 26 -23 22 0 25 4 22
27 -3 24 -28 40 -42 25z"/>
<path d="M17310 15025 c0 -20 5 -25 25 -25 20 0 25 5 25 25 0 20 -5 25 -25 25
-20 0 -25 -5 -25 -25z"/>
<path d="M17459 15048 c-1 -2 -3 -13 -4 -25 -2 -19 3 -23 27 -23 25 0 29 4 26
23 -2 14 -11 23 -25 25 -13 2 -24 2 -24 0z"/>
<path d="M17600 15025 c0 -20 5 -25 25 -25 20 0 25 5 25 25 0 20 -5 25 -25 25
-20 0 -25 -5 -25 -25z"/>
<path d="M17750 15025 c0 -20 5 -25 25 -25 20 0 25 5 25 25 0 20 -5 25 -25 25
-20 0 -25 -5 -25 -25z"/>
<path d="M17900 15025 c0 -20 5 -25 25 -25 20 0 25 5 25 25 0 20 -5 25 -25 25
-20 0 -25 -5 -25 -25z"/>
<path d="M18040 15025 c0 -20 5 -25 25 -25 20 0 25 5 25 25 0 20 -5 25 -25 25
-20 0 -25 -5 -25 -25z"/>
<path d="M18190 15025 c0 -20 5 -25 25 -25 20 0 25 5 25 25 0 20 -5 25 -25 25
-20 0 -25 -5 -25 -25z"/>
<path d="M15867 15024 c-30 -16 -31 -31 -4 -48 22 -14 40 4 35 37 -3 25 -4 25
-31 11z"/>
<path d="M15994 15026 c-9 -24 3 -46 26 -46 17 0 21 5 18 27 -3 31 -34 44 -44
19z"/>
<path d="M16147 15034 c-4 -4 -7 -16 -7 -26 0 -13 7 -18 26 -18 21 0 25 4 22
22 -3 23 -27 35 -41 22z"/>
<path d="M16290 15015 c0 -20 5 -25 25 -25 20 0 25 5 25 25 0 20 -5 25 -25 25
-20 0 -25 -5 -25 -25z"/>
<path d="M16432 15018 c4 -31 53 -34 53 -3 0 15 -8 21 -28 23 -25 3 -28 0 -25
-20z"/>
<path d="M16580 15015 c0 -20 5 -25 25 -25 20 0 25 5 25 25 0 20 -5 25 -25 25
-20 0 -25 -5 -25 -25z"/>
<path d="M16730 15015 c0 -20 5 -25 25 -25 20 0 25 5 25 25 0 20 -5 25 -25 25
-20 0 -25 -5 -25 -25z"/>
<path d="M16880 15015 c0 -18 5 -25 20 -25 15 0 20 7 20 25 0 18 -5 25 -20 25
-15 0 -20 -7 -20 -25z"/>
<path d="M17010 15015 c0 -20 5 -25 25 -25 20 0 25 5 25 25 0 20 -5 25 -25 25
-20 0 -25 -5 -25 -25z"/>
<path d="M15735 14936 c-16 -12 -17 -15 -4 -34 12 -17 17 -18 33 -7 14 11 15
17 6 34 -13 25 -11 25 -35 7z"/>
<path d="M15616 14857 c-15 -11 -17 -17 -7 -35 10 -18 15 -20 31 -12 23 12 25
20 7 43 -10 15 -15 16 -31 4z"/>
<path d="M15497 14779 c-20 -12 -22 -32 -4 -47 8 -7 18 -6 31 3 16 12 16 16 4
33 -10 15 -18 18 -31 11z"/>
<path d="M15361 14687 c-8 -10 -7 -18 2 -32 11 -14 17 -16 35 -6 18 10 20 15
12 31 -12 23 -33 26 -49 7z"/>
<path d="M15241 14607 c-8 -10 -7 -18 2 -31 10 -14 15 -15 30 -4 11 9 16 20
11 31 -7 20 -27 22 -43 4z"/>
<path d="M15121 14526 c-13 -16 -5 -46 13 -46 23 0 36 22 25 42 -12 22 -22 23
-38 4z"/>
<path d="M14995 14446 c-16 -12 -17 -16 -6 -30 26 -31 69 -9 50 26 -12 22 -19
22 -44 4z"/>
<path d="M14875 14366 c-16 -12 -17 -15 -3 -34 13 -19 17 -20 33 -9 12 10 15
20 11 35 -8 26 -15 27 -41 8z"/>
<path d="M14756 14287 c-15 -11 -17 -17 -7 -35 10 -18 15 -20 31 -12 23 12 25
20 7 43 -10 15 -15 16 -31 4z"/>
<path d="M450 14185 l0 -65 -55 0 c-54 0 -55 0 -55 -29 0 -29 2 -30 53 -33 45
-3 52 -6 55 -25 5 -35 52 -32 52 2 l0 25 134 0 c128 0 136 1 163 24 24 21 28
32 31 95 4 71 4 71 -22 71 -25 0 -26 -3 -26 -49 0 -76 -9 -81 -156 -81 l-124
0 0 65 c0 63 -1 65 -25 65 -24 0 -25 -2 -25 -65z"/>
<path d="M14637 14205 c-20 -15 -22 -29 -4 -44 10 -8 18 -7 32 3 16 12 17 15
4 34 -12 17 -17 18 -32 7z"/>
<path d="M14502 14117 c-7 -8 -6 -18 4 -31 12 -16 16 -17 31 -5 10 7 20 15 22
16 7 5 -21 33 -34 33 -7 0 -17 -6 -23 -13z"/>
<path d="M14387 14038 c-14 -12 -14 -15 -1 -33 13 -17 16 -18 29 -4 9 9 13 23
9 32 -7 20 -15 21 -37 5z"/>
<path d="M20215 13940 c-80 -80 -54 -74 -345 -90 -107 -5 -310 -17 -450 -25
-140 -8 -376 -21 -525 -30 -148 -8 -497 -29 -775 -45 -278 -16 -739 -43 -1025
-60 -286 -16 -645 -37 -799 -46 l-278 -16 -61 61 -62 61 -71 -71 -71 -71 -209
-18 c-297 -26 -718 -63 -1244 -110 -750 -66 -1120 -99 -1415 -125 -154 -13
-359 -31 -455 -40 -96 -8 -303 -27 -460 -40 -157 -14 -300 -28 -318 -31 -29
-4 -39 1 -95 55 l-63 60 -86 -87 c-47 -48 -84 -92 -82 -98 3 -5 -27 -23 -65
-39 -38 -16 -67 -34 -64 -39 4 -5 1 -6 -6 -1 -8 4 -33 -2 -60 -13 -25 -12
-129 -57 -231 -101 -254 -109 -271 -117 -263 -125 4 -4 1 -4 -8 -1 -8 3 -42
-6 -75 -21 -32 -15 -99 -44 -149 -64 -49 -21 -128 -55 -175 -75 -47 -21 -125
-54 -175 -75 -49 -21 -142 -60 -205 -88 -63 -27 -223 -95 -355 -152 -132 -56
-274 -117 -315 -135 -81 -36 -363 -156 -525 -224 -55 -24 -129 -55 -165 -71
-36 -16 -193 -84 -350 -150 -157 -66 -301 -128 -320 -136 -19 -9 -145 -63
-280 -121 -135 -57 -269 -115 -299 -129 l-54 -25 -46 45 -47 46 -87 -88 c-48
-48 -85 -91 -82 -94 5 -5 -154 -63 -600 -219 -93 -33 -244 -87 -335 -120 -157
-58 -411 -148 -785 -281 -268 -94 -504 -178 -575 -203 -36 -13 -150 -54 -255
-91 -224 -78 -450 -158 -520 -184 -27 -10 -140 -50 -250 -88 -110 -39 -258
-91 -330 -117 -71 -26 -148 -53 -170 -60 -22 -7 -98 -34 -169 -59 l-130 -46
-46 45 -46 45 -82 -83 c-45 -45 -82 -86 -82 -91 0 -10 77 -95 131 -143 l36
-33 84 85 c100 101 81 93 424 171 88 20 185 42 215 49 30 7 108 24 174 39 65
14 152 35 195 45 42 10 121 29 176 41 153 33 210 46 330 73 97 23 290 66 675
153 63 15 160 37 215 50 220 51 554 127 615 140 36 7 99 22 140 33 66 17 354
85 600 141 47 11 154 35 239 55 171 39 187 41 198 22 44 -72 194 -55 210 23 3
17 9 33 14 35 6 4 252 40 659 95 41 5 338 46 660 90 800 109 943 128 1105 150
77 11 421 58 765 105 344 47 634 83 644 81 11 -3 25 -1 30 3 6 5 67 16 136 26
69 9 133 19 142 21 12 4 21 -3 28 -20 17 -46 94 -69 153 -47 32 13 67 50 67
72 0 10 4 21 10 24 5 3 483 66 1062 141 579 74 1226 157 1438 184 212 27 525
67 695 89 171 22 456 58 635 81 l326 42 33 -31 c72 -67 148 -50 207 47 4 6
-104 1 3367 168 l768 37 42 -41 c38 -37 48 -42 90 -42 40 0 53 5 84 34 32 29
37 39 37 84 1 63 -24 101 -81 121 -35 13 -46 13 -79 0 -22 -8 -48 -28 -59 -45
l-20 -31 -150 -7 c-235 -10 -1956 -93 -2415 -116 -176 -9 -352 -17 -1040 -50
-118 -6 -289 -15 -379 -19 l-164 -9 -32 33 c-59 63 -161 51 -195 -22 -8 -18
-20 -33 -26 -33 -6 0 -291 -36 -635 -80 -343 -44 -784 -101 -979 -126 -195
-24 -596 -76 -890 -114 -1672 -216 -1650 -213 -1674 -192 -29 27 -61 42 -86
42 -37 0 -92 -32 -112 -65 -16 -29 -25 -33 -76 -38 -31 -3 -208 -26 -392 -52
-184 -25 -382 -52 -440 -60 -58 -8 -256 -35 -440 -60 -184 -25 -382 -52 -440
-60 -58 -8 -256 -35 -440 -60 -184 -25 -380 -52 -435 -59 -55 -8 -418 -57
-808 -111 l-708 -96 -30 25 c-64 54 -156 38 -191 -34 -17 -35 -21 -37 -120
-59 -281 -62 -791 -178 -1018 -231 -315 -73 -766 -176 -800 -183 -14 -2 -95
-20 -180 -40 -85 -20 -256 -59 -380 -87 -124 -28 -252 -57 -285 -65 -153 -37
-329 -74 -331 -72 -2 2 61 24 139 49 208 68 971 317 1272 415 143 46 456 149
695 228 239 79 539 178 665 219 400 130 382 125 370 106 -13 -21 25 -21 51 -1
25 20 29 20 48 6 50 -37 66 -31 48 17 -6 17 -9 34 -7 38 3 4 49 27 102 50 54
24 121 53 148 65 74 33 372 165 518 229 313 138 443 195 1097 484 162 71 369
162 460 202 91 40 190 83 220 97 30 14 132 59 225 100 94 41 321 141 505 223
981 432 982 433 991 419 6 -10 13 -11 31 -2 30 14 69 15 85 1 7 -5 20 -8 28
-4 12 4 13 10 3 31 -6 14 -9 27 -7 29 2 2 191 20 419 40 621 55 965 86 1065
95 75 7 93 6 108 -7 16 -14 20 -14 45 4 23 17 67 23 297 43 149 12 389 33 535
46 146 14 474 43 730 65 256 22 562 49 680 60 118 10 254 22 301 26 l87 7 -5
-27 c-4 -19 -1 -26 10 -26 9 0 18 4 21 9 3 5 22 9 41 9 19 0 38 -4 41 -9 3 -5
12 -9 21 -9 12 0 14 7 10 29 l-6 29 72 6 c40 3 149 8 242 11 94 3 350 12 570
20 220 8 522 20 670 25 149 5 455 17 680 25 226 8 529 20 675 25 146 5 454 17
685 25 231 8 475 18 543 21 l122 7 -6 -32 c-8 -37 6 -40 43 -11 l26 20 34 -21
c41 -26 51 -19 35 24 -13 34 -12 35 34 63 26 15 8 34 -34 34 l-36 0 72 73 72
72 -88 88 -87 87 -70 -70z m-17 -193 c23 -23 42 -45 42 -49 0 -6 -140 -13
-565 -28 -1059 -38 -2086 -76 -3110 -115 -214 -8 -421 -15 -459 -15 -138 0
-53 11 190 26 137 7 517 30 844 49 327 19 831 48 1120 65 543 31 1673 97 1770
103 133 8 123 10 168 -36z m-4440 -222 c-3 -4 -181 -22 -394 -41 -787 -70
-1068 -94 -1464 -129 -223 -19 -442 -39 -488 -43 -46 -5 -85 -5 -87 -2 -3 5
89 14 730 70 672 59 1169 103 1395 124 283 26 316 28 308 21z m-2480 -220 c-6
-6 -86 -14 -678 -65 -256 -22 -565 -50 -688 -61 -122 -11 -232 -19 -245 -17
-25 4 37 12 283 33 237 20 1052 93 1170 103 119 12 165 13 158 7z m-2089 -289
c-5 -6 -148 -70 -479 -216 -140 -61 -289 -127 -330 -145 -41 -18 -154 -68
-250 -110 -197 -86 -671 -295 -1170 -516 -184 -81 -454 -200 -600 -264 -146
-64 -285 -126 -310 -137 -25 -11 -79 -35 -120 -53 -41 -18 -209 -91 -372 -164
-164 -72 -301 -131 -305 -131 -4 0 -2 5 5 12 8 8 8 15 1 24 -14 17 -30 10 542
254 272 117 508 218 524 225 17 8 201 87 410 176 209 89 479 204 600 256 121
52 308 132 415 178 107 45 242 103 300 128 58 25 265 114 460 197 195 83 369
157 385 165 17 7 53 22 80 33 28 11 84 36 125 56 68 32 101 43 89 32z m-4179
-1801 c10 -12 10 -15 -3 -15 -8 0 -21 -9 -28 -19 -10 -13 -126 -55 -374 -136
-198 -64 -472 -154 -610 -200 -355 -119 -808 -265 -812 -261 -2 2 70 29 159
61 316 111 464 164 588 210 69 26 213 78 320 115 247 87 474 167 615 218 127
47 129 47 145 27z m-1843 -641 c-3 -3 -12 -4 -19 -1 -8 3 -5 6 6 6 11 1 17 -2
13 -5z m-42 -14 c-3 -5 -14 -10 -23 -9 -14 0 -13 2 3 9 27 11 27 11 20 0z"/>
<path d="M14261 13956 c-13 -16 -4 -46 14 -46 7 0 18 7 25 15 10 12 10 18 0
30 -15 19 -24 19 -39 1z"/>
<path d="M593 13950 c-119 -13 -182 -121 -138 -236 45 -117 234 -150 329 -58
43 41 60 99 53 174 -7 81 -21 110 -52 110 -29 0 -29 0 -9 -65 29 -96 -9 -187
-83 -201 l-33 -6 0 140 c0 78 -3 142 -7 144 -5 2 -31 1 -60 -2z m17 -171 l0
-111 -27 7 c-16 3 -41 19 -57 35 -23 23 -29 38 -30 75 -1 41 3 50 32 76 18 16
43 29 57 29 l25 0 0 -111z"/>
<path d="M14137 13879 c-13 -8 -15 -14 -7 -30 12 -22 33 -25 48 -6 7 8 7 17
-2 30 -15 20 -15 20 -39 6z"/>
<path d="M14015 13796 c-16 -12 -17 -16 -6 -30 16 -20 35 -21 50 -3 8 11 7 18
-7 30 -16 15 -21 15 -37 3z"/>
<path d="M13896 13717 c-16 -12 -17 -16 -5 -35 10 -16 17 -18 31 -11 21 11 22
19 5 42 -10 15 -15 16 -31 4z"/>
<path d="M13778 13639 c-35 -19 -11 -67 24 -48 21 11 22 19 6 42 -10 12 -17
14 -30 6z"/>
<path d="M13652 13551 c-22 -16 -22 -18 -5 -33 15 -14 21 -14 37 -3 16 12 16
16 4 34 -13 18 -15 19 -36 2z"/>
<path d="M660 13502 c-15 -16 -34 -49 -40 -73 -33 -123 -50 -144 -93 -116 -33
21 -42 76 -24 145 l14 52 -28 0 c-24 0 -30 -6 -38 -37 -16 -57 -13 -123 8
-170 16 -34 27 -44 61 -54 34 -10 46 -10 74 4 35 16 52 49 76 145 7 26 20 48
35 58 23 15 27 15 49 1 14 -9 26 -30 30 -50 7 -36 -7 -114 -25 -148 -9 -17 -6
-19 24 -19 33 0 35 3 46 44 15 61 14 130 -3 170 -32 76 -114 100 -166 48z"/>
<path d="M13521 13467 c-8 -10 -7 -18 2 -32 12 -15 16 -16 35 -4 16 10 18 17
11 31 -11 21 -32 23 -48 5z"/>
<path d="M1174 13206 c-39 -33 -39 -89 -1 -122 27 -23 27 -23 6 -34 -32 -18
-50 -70 -38 -114 13 -46 50 -66 124 -66 49 0 60 4 86 29 41 41 41 102 0 140
l-28 26 23 18 c36 27 34 98 -2 126 -40 31 -133 30 -170 -3z m120 -17 c28 -13
38 -42 26 -75 -16 -42 -98 -45 -121 -3 -30 57 31 107 95 78z m16 -167 c27 -22
30 -76 5 -101 -20 -20 -90 -20 -109 -1 -45 46 -14 120 49 120 18 0 43 -8 55
-18z"/>
<path d="M1486 13200 c-14 -17 -31 -50 -37 -73 -14 -52 -8 -152 12 -191 43
-87 152 -91 206 -9 14 21 18 48 18 118 0 140 -32 185 -130 185 -36 0 -47 -5
-69 -30z m121 -24 c26 -22 28 -31 31 -108 4 -94 -6 -130 -42 -153 -35 -23 -77
-3 -93 45 -27 80 -9 204 34 229 27 16 39 13 70 -13z"/>
<path d="M13037 13145 c-16 -11 -16 -16 -6 -33 10 -16 17 -18 31 -11 21 11 23
32 5 47 -8 7 -17 6 -30 -3z"/>
<path d="M520 13118 c-73 -37 -97 -113 -69 -223 8 -33 16 -44 35 -48 13 -2 25
-3 27 -1 2 2 -3 30 -11 62 -19 77 -5 135 39 157 16 9 34 13 39 10 6 -3 10 -40
10 -82 0 -119 40 -173 128 -173 109 0 160 130 87 225 l-26 35 25 0 c22 0 26 5
26 30 l0 30 -133 0 c-118 0 -138 -3 -177 -22z m218 -65 c34 -21 56 -79 45
-117 -12 -41 -52 -64 -90 -51 -38 14 -53 48 -53 128 l0 68 38 -7 c20 -3 48
-13 60 -21z"/>
<path d="M12916 13067 c-15 -11 -17 -17 -7 -35 10 -18 15 -20 31 -12 23 12 25
20 7 43 -10 15 -15 16 -31 4z"/>
<path d="M1840 13060 c0 -5 20 -10 45 -10 25 0 45 5 45 10 0 6 -20 10 -45 10
-25 0 -45 -4 -45 -10z"/>
<path d="M12782 12978 c-9 -9 -8 -16 4 -29 22 -24 58 -5 43 23 -11 21 -30 23
-47 6z"/>
<path d="M12667 12898 c-14 -11 -14 -16 -2 -31 11 -15 17 -17 34 -7 17 9 19
15 11 30 -12 23 -20 25 -43 8z"/>
<path d="M12541 12817 c-8 -10 -7 -18 2 -32 12 -15 16 -16 35 -4 20 12 20 15
5 31 -19 21 -27 22 -42 5z"/>
<path d="M450 12695 l0 -65 -55 0 c-54 0 -55 0 -55 -30 0 -30 1 -30 55 -30 52
0 55 -1 55 -25 0 -20 5 -25 25 -25 20 0 25 5 25 24 l0 24 140 4 c174 4 182 9
188 118 4 70 4 70 -22 70 -24 0 -26 -3 -26 -45 0 -76 -17 -85 -160 -85 l-120
0 0 65 c0 63 -1 65 -25 65 -24 0 -25 -2 -25 -65z"/>
<path d="M12420 12740 c-11 -7 -12 -14 -4 -27 13 -22 25 -25 44 -13 11 7 12
14 4 27 -13 22 -25 25 -44 13z"/>
<path d="M12298 12656 c-15 -11 -15 -16 -4 -31 10 -14 16 -16 34 -6 19 10 20
14 9 31 -14 23 -16 24 -39 6z"/>
<path d="M12175 12574 c-19 -14 -19 -14 1 -34 20 -20 21 -20 37 -2 16 18 16
20 0 35 -16 14 -20 14 -38 1z"/>
<path d="M12055 12496 c-16 -12 -17 -15 -4 -34 12 -17 17 -18 33 -7 14 11 15
17 6 34 -13 25 -11 25 -35 7z"/>
<path d="M536 12430 c-81 -25 -115 -117 -85 -236 10 -40 14 -44 41 -44 25 0
29 3 23 18 -35 83 -23 176 28 200 15 7 32 10 37 7 6 -3 10 -38 10 -76 0 -80
16 -127 55 -157 55 -44 154 -20 181 43 25 61 14 127 -28 173 l-21 22 26 0 c23
0 27 4 27 30 l0 30 -132 -1 c-73 0 -146 -5 -162 -9z m202 -77 c82 -52 46 -191
-43 -169 -35 9 -55 58 -55 137 l0 61 38 -7 c20 -3 48 -13 60 -22z"/>
<path d="M11938 12419 c-21 -12 -23 -32 -5 -47 8 -7 17 -6 30 3 15 11 16 17 7
34 -12 24 -10 23 -32 10z"/>
<path d="M11807 12329 c-17 -10 -17 -12 -2 -29 14 -15 21 -17 35 -7 14 8 16
15 9 29 -11 21 -17 22 -42 7z"/>
<path d="M11687 12247 c-15 -10 -16 -15 -4 -31 12 -16 16 -17 34 -5 17 10 19
16 10 31 -14 21 -18 22 -40 5z"/>
<path d="M11560 12164 c-11 -12 -10 -18 3 -32 16 -15 18 -15 34 0 13 14 14 20
3 32 -7 9 -16 16 -20 16 -4 0 -13 -7 -20 -16z"/>
<path d="M11449 12064 c-11 -14 -11 -18 6 -30 26 -19 30 -18 43 11 6 14 8 25
3 25 -5 0 -16 2 -24 5 -7 3 -20 -2 -28 -11z"/>
<path d="M300 11980 l0 -30 100 0 100 0 -20 -20 c-63 -63 -49 -164 30 -221 58
-43 202 -43 260 0 79 57 93 158 30 221 l-20 20 25 0 c21 0 25 5 25 30 l0 30
-265 0 -265 0 0 -30z m426 -49 c32 -14 45 -28 53 -54 26 -77 -35 -137 -139
-137 -29 0 -68 8 -87 17 -87 41 -72 162 22 186 44 11 112 5 151 -12z"/>
<path d="M11382 11936 c-9 -20 -7 -25 12 -34 18 -8 25 -6 35 10 14 22 14 21
-15 36 -18 10 -23 8 -32 -12z"/>
<path d="M11316 11804 c-10 -25 -7 -31 14 -37 26 -7 50 31 29 44 -21 13 -36
11 -43 -7z"/>
<path d="M11246 11673 c-5 -11 -1 -22 10 -30 25 -18 31 -16 37 9 10 35 -35 54
-47 21z"/>
<path d="M11180 11540 c-8 -16 -6 -21 11 -31 17 -9 23 -8 30 2 13 21 11 36 -7
43 -22 8 -22 8 -34 -14z"/>
<path d="M11115 11409 c-5 -14 -2 -25 6 -30 21 -13 27 -11 39 11 8 15 6 21 -9
30 -27 14 -29 13 -36 -11z"/>
<path d="M630 11343 c-19 -10 -44 -32 -55 -49 l-21 -31 -12 27 c-26 57 -121
73 -169 29 -49 -46 -63 -114 -47 -233 6 -43 9 -46 37 -46 26 0 29 3 23 23 -15
48 -17 142 -4 167 21 40 59 56 95 41 38 -15 53 -48 53 -111 0 -47 2 -50 25
-50 23 0 25 4 25 43 0 87 55 146 125 133 69 -13 98 -92 71 -196 -9 -34 -16
-64 -16 -66 0 -2 11 -4 25 -4 37 0 49 33 50 135 0 72 -4 97 -20 124 -41 70
-120 97 -185 64z"/>
<path d="M10997 11142 c-32 -4 -32 -25 0 -30 12 -2 23 4 27 14 8 20 8 20 -27
16z"/>
<path d="M10909 11019 c-9 -17 -8 -23 2 -30 34 -21 63 7 39 36 -17 20 -27 19
-41 -6z"/>
<path d="M507 10918 c-70 -9 -115 -29 -153 -69 -26 -27 -29 -37 -29 -97 0 -79
18 -111 80 -142 88 -43 268 -42 347 2 55 31 80 67 85 125 11 133 -125 208
-330 181z m219 -88 c72 -31 82 -113 18 -155 -63 -41 -277 -39 -334 3 -51 39
-51 105 1 144 53 40 232 45 315 8z"/>
<path d="M10843 10890 c-11 -16 -9 -21 10 -35 20 -14 23 -14 31 5 6 13 5 25
-4 35 -16 20 -23 19 -37 -5z"/>
<path d="M10776 10758 c-4 -15 0 -27 11 -35 14 -11 19 -9 31 9 14 19 13 22 -3
34 -26 19 -32 18 -39 -8z"/>
<path d="M10709 10629 c-9 -17 -8 -23 2 -30 21 -13 36 -11 43 7 8 22 8 22 -14
34 -16 8 -21 6 -31 -11z"/>
<path d="M1257 10509 c-75 -12 -119 -81 -118 -185 0 -73 23 -137 56 -158 36
-23 116 -21 148 5 54 42 56 160 3 194 -38 25 -89 29 -124 11 -31 -16 -32 -16
-32 4 0 66 66 110 135 91 34 -9 36 -8 33 12 -4 25 -44 36 -101 26z m55 -176
c25 -28 30 -61 18 -99 -31 -94 -157 -43 -134 55 10 40 34 61 69 61 18 0 39 -8
47 -17z"/>
<path d="M10641 10497 c-7 -16 -5 -25 7 -34 22 -18 27 -16 40 11 9 20 7 25
-14 35 -22 9 -26 8 -33 -12z"/>
<path d="M1486 10480 c-34 -41 -49 -102 -43 -175 8 -105 51 -158 126 -157 80
1 113 48 119 169 4 69 1 89 -17 126 -24 50 -53 67 -116 67 -36 0 -47 -5 -69
-30z m109 -12 c34 -15 48 -67 43 -163 -3 -70 -6 -79 -32 -101 -51 -45 -100 -9
-111 81 -10 77 2 143 30 171 27 27 34 29 70 12z"/>
<path d="M448 10466 c-95 -35 -131 -83 -126 -167 7 -94 53 -138 175 -160 72
-14 183 -4 237 20 23 10 54 33 71 50 26 28 30 39 30 94 0 77 -27 120 -94 150
-59 27 -236 35 -293 13z m253 -66 c102 -28 118 -129 26 -173 -49 -24 -167 -33
-241 -17 -134 28 -160 143 -41 185 47 16 203 20 256 5z"/>
<path d="M10572 10366 c-8 -18 -6 -25 9 -35 23 -14 35 -9 42 18 3 13 -3 22
-18 29 -19 9 -24 7 -33 -12z"/>
<path d="M1840 10330 c0 -5 20 -10 45 -10 25 0 45 5 45 10 0 6 -20 10 -45 10
-25 0 -45 -4 -45 -10z"/>
<path d="M10506 10234 c-6 -17 9 -44 25 -44 5 0 13 10 20 21 9 17 8 23 -2 30
-21 13 -36 11 -43 -7z"/>
<path d="M10436 10103 c-5 -11 -1 -22 10 -30 25 -18 31 -16 37 9 10 35 -35 54
-47 21z"/>
<path d="M780 9899 l0 -120 -105 98 c-121 113 -153 133 -213 133 -115 0 -167
-102 -130 -259 11 -49 13 -51 46 -51 29 0 33 3 27 18 -39 90 -44 136 -20 181
16 33 33 41 81 41 50 0 63 -9 194 -134 88 -83 124 -111 144 -111 l26 0 0 163
0 162 -25 0 -25 0 0 -121z"/>
<path d="M10370 9970 c-8 -16 -6 -21 11 -31 17 -9 23 -8 30 2 13 21 11 36 -7
43 -22 8 -22 8 -34 -14z"/>
<path d="M10303 9840 c-11 -17 -10 -21 9 -31 18 -10 24 -8 35 7 12 16 11 21
-4 31 -22 17 -26 16 -40 -7z"/>
<path d="M10235 9709 c-5 -14 -2 -25 6 -30 23 -14 36 -10 42 13 7 26 8 24 -20
32 -16 5 -23 2 -28 -15z"/>
<path d="M10169 9579 c-9 -17 -8 -23 2 -30 21 -13 27 -11 39 11 8 15 6 21 -9
30 -17 8 -22 6 -32 -11z"/>
<path d="M10099 9448 c-9 -16 -8 -22 2 -29 22 -14 37 -11 48 10 8 15 6 20 -14
29 -21 10 -26 8 -36 -10z"/>
<path d="M778 9298 l-3 -123 -227 -3 -228 -2 0 -35 0 -35 253 2 252 3 3 158 3
157 -25 0 -25 0 -3 -122z"/>
<path d="M10032 9319 c-15 -23 -15 -22 15 -38 18 -9 23 -8 28 9 6 19 -9 50
-24 50 -3 0 -12 -9 -19 -21z"/>
<path d="M9966 9184 c-8 -22 -8 -22 14 -34 16 -8 21 -6 31 11 9 17 8 23 -2 30
-21 13 -36 11 -43 -7z"/>
<path d="M9900 9059 c-12 -22 -1 -38 26 -39 10 0 29 30 22 34 -2 1 -11 7 -20
14 -14 11 -18 10 -28 -9z"/>
<path d="M780 8911 c0 -109 -2 -120 -19 -126 -10 -3 -23 -5 -27 -4 -5 1 -100
1 -211 0 l-203 -1 0 -30 0 -30 255 0 255 0 0 155 0 155 -25 0 -25 0 0 -119z"/>
<path d="M9829 8929 c-8 -17 -7 -23 8 -35 25 -18 28 -18 41 10 9 20 7 25 -14
34 -20 10 -25 8 -35 -9z"/>
<path d="M9761 8794 c-9 -20 -7 -25 10 -35 23 -12 22 -12 37 16 8 17 6 22 -13
31 -20 10 -25 8 -34 -12z"/>
<path d="M9693 8662 c-9 -15 -7 -21 8 -30 25 -16 26 -15 40 9 9 17 8 23 -2 30
-21 13 -33 11 -46 -9z"/>
<path d="M320 8545 l0 -36 205 3 c113 2 205 1 205 -2 0 -3 -92 -54 -205 -113
l-205 -109 0 -44 0 -44 255 0 255 0 0 30 0 30 -211 2 -211 3 211 110 211 110
0 48 0 47 -255 0 -255 0 0 -35z"/>
<path d="M9626 8533 c-5 -11 -1 -22 10 -30 24 -18 32 -16 39 8 11 35 -37 55
-49 22z"/>
<path d="M9560 8400 c-8 -16 -6 -21 11 -31 17 -9 23 -8 30 2 13 21 11 36 -7
43 -22 8 -22 8 -34 -14z"/>
<path d="M9493 8270 c-11 -17 -10 -21 8 -31 22 -11 38 0 39 27 0 9 -21 24 -33
24 -1 0 -8 -9 -14 -20z"/>
<path d="M9425 8139 c-5 -14 -2 -25 6 -30 21 -13 27 -11 39 11 8 15 6 21 -9
30 -27 14 -29 13 -36 -11z"/>
<path d="M570 8081 c-59 -19 -89 -42 -109 -84 -42 -86 -16 -183 62 -228 34
-20 56 -24 117 -24 61 0 83 4 117 24 109 63 109 237 0 293 -45 22 -145 33
-187 19z m155 -75 c33 -14 65 -59 65 -91 0 -32 -32 -77 -65 -91 -19 -8 -57
-14 -85 -14 -28 0 -66 6 -85 14 -33 14 -65 59 -65 91 0 31 32 77 63 90 42 18
129 19 172 1z"/>
<path d="M9359 8009 c-9 -17 -8 -23 2 -30 21 -13 36 -11 43 7 8 22 8 22 -14
34 -16 8 -21 6 -31 -11z"/>
<path d="M9290 7879 c-13 -23 -13 -22 16 -37 19 -10 23 -8 27 10 6 22 -7 48
-24 48 -5 0 -13 -9 -19 -21z"/>
<path d="M1240 7737 c-19 -28 -40 -56 -47 -62 -21 -18 -73 -109 -73 -127 0
-16 10 -18 85 -18 l85 0 0 -45 c0 -41 2 -45 25 -45 23 0 25 4 25 45 0 41 2 45
25 45 18 0 25 5 25 20 0 15 -7 20 -25 20 l-25 0 0 110 0 110 -32 0 c-28 0 -38
-8 -68 -53z m50 -82 l0 -85 -60 0 c-33 0 -60 2 -60 4 0 7 62 99 77 114 7 8 18
22 23 33 6 10 13 19 15 19 3 0 5 -38 5 -85z"/>
<path d="M1488 7763 c-33 -36 -48 -83 -48 -148 0 -65 15 -112 48 -147 22 -24
34 -28 77 -28 43 0 55 4 77 28 37 39 51 94 46 172 -8 109 -44 150 -132 150
-33 0 -48 -6 -68 -27z m119 -27 c25 -22 28 -31 31 -103 4 -89 -6 -125 -42
-148 -22 -14 -29 -15 -53 -3 -67 32 -72 229 -6 267 27 16 39 13 70 -13z"/>
<path d="M9222 7749 c-15 -23 -15 -22 14 -37 18 -10 23 -8 32 13 10 21 8 26
-8 35 -24 13 -23 13 -38 -11z"/>
<path d="M366 7667 c-27 -21 -46 -84 -46 -156 0 -93 35 -163 103 -205 40 -24
62 -30 127 -34 110 -6 163 10 221 68 35 35 49 58 59 99 29 122 -20 259 -85
235 -10 -4 -7 -16 10 -47 31 -56 39 -105 25 -158 -22 -82 -91 -128 -194 -129
-79 0 -133 18 -172 57 -54 54 -58 165 -8 238 13 19 20 35 16 36 -4 0 -15 2
-24 4 -9 2 -24 -2 -32 -8z"/>
<path d="M9156 7634 c-10 -25 -7 -33 14 -44 16 -8 21 -6 31 12 10 18 8 24 -7
35 -23 17 -31 16 -38 -3z"/>
<path d="M1840 7620 c0 -5 20 -10 45 -10 25 0 45 5 45 10 0 6 -20 10 -45 10
-25 0 -45 -4 -45 -10z"/>
<path d="M9090 7499 c-10 -17 -8 -23 7 -34 15 -12 20 -12 31 2 17 23 15 31 -8
43 -15 8 -21 6 -30 -11z"/>
<path d="M9022 7366 c-8 -18 -6 -25 8 -34 13 -8 20 -8 29 1 16 16 13 35 -8 46
-15 8 -20 6 -29 -13z"/>
<path d="M8952 7235 c-8 -17 -6 -24 10 -34 17 -10 22 -9 34 6 18 24 18 26 -10
39 -21 10 -25 8 -34 -11z"/>
<path d="M8883 7104 c-4 -10 1 -22 12 -30 16 -12 20 -11 33 7 12 18 13 23 1
30 -22 13 -39 11 -46 -7z"/>
<path d="M13042 7068 c1 -18 0 -53 0 -77 l-2 -43 -25 16 c-31 20 -104 21 -133
0 -74 -52 -77 -201 -5 -265 32 -27 42 -31 80 -26 24 2 53 13 63 22 18 16 20
17 20 2 0 -12 9 -17 28 -17 l29 0 -2 208 -2 207 -26 3 c-23 3 -26 0 -25 -30z
m-27 -153 c21 -20 25 -34 25 -85 0 -55 -3 -65 -29 -91 -32 -32 -47 -35 -85
-18 -52 24 -67 140 -25 193 28 35 80 36 114 1z"/>
<path d="M18161 7069 c-11 -17 -29 -63 -42 -101 -31 -98 -23 -192 25 -295 27
-57 40 -74 53 -71 21 5 21 5 -11 83 -47 115 -44 241 10 362 22 51 22 53 3 53
-11 0 -27 -13 -38 -31z"/>
<path d="M19800 7060 c62 -122 65 -265 7 -403 -21 -48 -21 -50 -2 -53 9 -1 25
15 39 39 69 121 75 258 16 385 -27 60 -37 72 -57 72 l-23 0 20 -40z"/>
<path d="M18408 7080 c-52 -9 -86 -35 -96 -74 -22 -77 19 -127 118 -147 32 -6
68 -20 79 -31 27 -24 27 -70 0 -94 -27 -25 -121 -25 -166 -1 l-33 18 0 -30 c0
-26 5 -30 44 -40 121 -30 217 6 232 86 14 73 -32 123 -131 143 -71 14 -95 33
-95 71 0 43 37 63 108 57 31 -3 65 -9 75 -13 14 -6 17 -2 17 18 0 22 -5 27
-37 32 -67 10 -77 11 -115 5z"/>
<path d="M11369 7053 c-60 -153 -139 -365 -139 -372 0 -9 47 -8 54 0 2 2 10
24 18 49 l15 45 93 0 93 0 17 -50 c14 -42 20 -49 43 -50 15 -1 27 3 26 9 0 6
-33 97 -73 201 -72 188 -73 190 -104 193 -27 3 -34 -1 -43 -25z m79 -132 c17
-48 32 -91 32 -95 0 -3 -31 -6 -70 -6 -38 0 -70 3 -70 6 0 13 65 184 70 184 3
0 20 -40 38 -89z"/>
<path d="M11725 7066 c-128 -56 -139 -283 -18 -366 31 -21 48 -25 107 -25 87
1 136 23 136 61 l0 26 -37 -23 c-50 -31 -130 -32 -170 -3 -15 11 -36 36 -45
55 -38 74 -10 202 51 233 41 22 109 20 156 -4 22 -11 41 -20 42 -20 2 0 3 11
3 26 0 19 -8 28 -35 40 -43 17 -150 18 -190 0z"/>
<path d="M12030 6880 l0 -200 130 0 c123 0 130 1 130 20 0 19 -7 20 -100 20
l-100 0 0 80 0 80 95 0 c88 0 95 1 95 20 0 19 -7 20 -95 20 l-95 0 0 60 0 60
100 0 c93 0 100 1 100 20 0 19 -7 20 -130 20 l-130 0 0 -200z"/>
<path d="M18744 7061 c-95 -58 -122 -199 -59 -307 61 -103 210 -114 292 -21
82 94 54 281 -50 330 -49 23 -143 22 -183 -2z m156 -36 c77 -40 94 -196 29
-270 -59 -67 -163 -52 -200 29 -34 75 -23 170 26 222 27 28 40 34 74 34 23 0
55 -7 71 -15z"/>
<path d="M19060 7060 c0 -18 7 -20 70 -20 l70 0 0 -181 0 -180 28 3 27 3 3
178 2 177 70 0 c63 0 70 2 70 20 0 19 -7 20 -170 20 -163 0 -170 -1 -170 -20z"/>
<path d="M19442 6893 c-39 -104 -72 -195 -74 -203 -2 -10 5 -15 22 -15 20 0
28 9 45 53 l20 52 90 0 90 0 20 -52 c19 -48 39 -64 62 -49 6 3 -21 86 -66 204
l-75 197 -31 0 -31 0 -72 -187z m142 24 l35 -97 -76 0 c-68 0 -74 2 -68 18 4
9 21 54 37 100 17 45 32 81 34 80 1 -2 19 -47 38 -101z"/>
<path d="M15420 7020 c0 -29 -4 -40 -15 -40 -8 0 -15 -9 -15 -20 0 -11 7 -20
15 -20 12 0 15 -16 15 -87 0 -152 20 -183 115 -183 38 0 45 3 45 20 0 16 -7
20 -37 20 -64 0 -68 7 -68 122 l0 103 53 3 c44 3 52 6 52 23 0 16 -7 19 -55
19 l-55 0 0 40 c0 36 -2 40 -25 40 -22 0 -25 -4 -25 -40z"/>
<path d="M16840 7020 c0 -33 -3 -40 -20 -40 -13 0 -20 -7 -20 -20 0 -13 7 -20
20 -20 19 0 20 -7 20 -109 0 -134 9 -151 88 -159 48 -4 52 -3 52 17 0 17 -6
21 -33 21 -51 0 -57 13 -57 127 l0 103 45 0 c38 0 45 3 45 20 0 17 -7 20 -45
20 l-45 0 0 40 c0 36 -2 40 -25 40 -22 0 -25 -4 -25 -40z"/>
<path d="M17710 7020 c0 -33 -3 -40 -20 -40 -13 0 -20 -7 -20 -20 0 -13 7 -20
20 -20 19 0 20 -7 20 -110 0 -104 1 -112 25 -135 19 -20 34 -25 75 -25 43 0
50 3 50 20 0 16 -7 20 -38 20 -21 0 -43 5 -50 12 -8 8 -12 48 -12 115 l0 103
50 0 c43 0 50 3 50 20 0 17 -7 20 -50 20 l-50 0 0 40 c0 36 -2 40 -25 40 -22
0 -25 -4 -25 -40z"/>
<path d="M12540 6950 l0 -80 -75 0 c-68 0 -75 -2 -75 -20 0 -18 7 -20 75 -20
l75 0 0 -75 c0 -68 2 -75 20 -75 18 0 20 7 20 75 l0 75 79 0 c70 0 79 2 77 18
-2 14 -15 17 -79 20 l-77 3 0 79 c0 73 -2 80 -20 80 -18 0 -20 -7 -20 -80z"/>
<path d="M8816 6974 c-8 -22 -8 -22 14 -34 16 -8 21 -6 31 11 9 17 8 23 -2 30
-21 13 -36 11 -43 -7z"/>
<path d="M13285 6980 c-75 -16 -105 -61 -105 -158 0 -96 50 -152 135 -152 85
0 135 56 135 152 0 62 -14 101 -48 131 -26 23 -78 35 -117 27z m90 -72 c24
-29 27 -38 23 -92 -4 -49 -9 -63 -32 -83 -56 -48 -124 -13 -133 69 -10 88 20
138 81 138 26 0 41 -8 61 -32z"/>
<path d="M16600 6978 c-13 -5 -33 -16 -42 -25 -17 -15 -18 -15 -18 5 0 17 -6
22 -25 22 l-25 0 0 -150 0 -150 25 0 25 0 0 104 c0 90 3 107 21 130 18 23 28
27 62 24 57 -4 67 -27 67 -155 l0 -103 25 0 25 0 0 113 c0 127 -16 171 -67
183 -15 3 -32 7 -38 9 -5 1 -21 -2 -35 -7z"/>
<path d="M13567 6950 c-76 -67 -67 -210 16 -260 57 -35 162 -25 170 16 4 21 2
24 -17 17 -11 -5 -43 -8 -69 -8 -68 0 -97 33 -97 111 0 48 4 60 29 85 23 23
38 29 71 29 23 0 50 -5 61 -10 16 -9 19 -7 19 14 0 30 -16 36 -90 36 -52 0
-64 -4 -93 -30z"/>
<path d="M13840 6863 c0 -99 3 -123 20 -150 31 -51 110 -58 158 -13 l22 21 0
-21 c0 -15 7 -20 25 -20 l25 0 0 150 0 150 -25 0 -25 0 0 -106 c0 -103 -1
-106 -29 -135 -35 -34 -72 -38 -101 -9 -18 18 -20 33 -20 135 l0 115 -25 0
-25 0 0 -117z"/>
<path d="M14190 6830 l0 -150 24 0 c24 0 24 1 28 111 3 102 5 112 27 130 28
22 69 25 96 5 17 -12 20 -30 23 -130 4 -115 4 -116 28 -116 24 0 24 1 24 105
0 99 2 107 25 130 29 30 75 33 98 7 14 -15 17 -40 17 -130 l0 -112 25 0 25 0
0 119 c0 114 -1 121 -26 150 -22 26 -33 31 -72 31 -36 0 -52 -6 -73 -26 l-27
-25 -25 25 c-34 34 -101 36 -141 5 l-26 -20 0 20 c0 16 -6 21 -25 21 l-25 0 0
-150z"/>
<path d="M14773 6959 c-85 -54 -82 -208 6 -266 59 -40 201 -26 201 19 0 17 -4
19 -27 12 -16 -5 -54 -9 -85 -9 -64 0 -83 12 -97 63 l-10 32 115 0 114 0 0 35
c0 47 -26 99 -60 119 -39 23 -117 21 -157 -5z m142 -44 c14 -13 25 -33 25 -45
0 -19 -6 -20 -85 -20 -79 0 -85 1 -85 20 0 34 44 70 85 70 25 0 44 -8 60 -25z"/>
<path d="M15070 6830 l0 -150 25 0 c25 0 25 0 25 95 0 129 19 165 85 165 13 0
30 -3 39 -6 24 -9 38 -78 34 -168 -3 -80 -2 -81 22 -84 l25 -3 -3 108 c-3 131
-6 147 -34 173 -30 28 -106 28 -142 -1 l-26 -20 0 20 c0 16 -6 21 -25 21 l-25
0 0 -150z"/>
<path d="M15875 6949 c-46 -41 -61 -95 -46 -165 17 -75 66 -114 143 -114 68 0
88 9 88 37 0 20 -3 24 -17 17 -10 -4 -37 -9 -60 -12 -37 -3 -47 0 -73 26 -25
26 -30 38 -30 81 0 61 14 95 47 110 30 14 88 14 114 1 16 -9 19 -7 19 14 0 30
-16 36 -90 36 -52 0 -64 -4 -95 -31z"/>
<path d="M16186 6959 c-38 -30 -56 -71 -56 -129 0 -58 18 -106 49 -134 31 -28
115 -34 157 -11 91 49 90 242 -1 283 -43 20 -119 15 -149 -9z m119 -25 c25
-10 45 -59 45 -113 0 -120 -124 -155 -160 -45 -34 101 32 190 115 158z"/>
<path d="M17093 6960 c-43 -26 -63 -68 -63 -132 0 -101 56 -158 156 -158 69 0
114 17 114 42 0 17 -4 19 -32 11 -18 -4 -57 -8 -85 -8 -59 0 -87 19 -98 68
l-7 27 116 0 c114 0 116 0 116 23 0 46 -21 96 -51 121 -39 33 -117 36 -166 6z
m122 -26 c19 -8 48 -61 40 -74 -3 -6 -44 -10 -91 -10 -96 0 -105 10 -55 61 29
29 68 37 106 23z"/>
<path d="M17366 6968 c5 -7 27 -39 51 -72 27 -36 40 -63 35 -70 -5 -6 -30 -39
-55 -73 -26 -34 -47 -64 -47 -67 0 -3 12 -6 28 -6 21 0 35 12 66 55 22 30 43
55 47 55 5 0 25 -25 46 -55 30 -43 44 -54 66 -55 15 0 27 2 27 5 0 3 -24 38
-54 77 l-54 72 54 70 53 71 -26 3 c-19 3 -32 -4 -48 -25 -13 -15 -31 -39 -42
-52 l-20 -24 -39 51 c-30 39 -45 51 -67 51 -20 1 -26 -3 -21 -11z"/>
<path d="M527 6936 c-51 -19 -65 -32 -78 -76 -15 -49 -5 -102 27 -140 l26 -30
-26 0 c-22 0 -26 -4 -26 -30 l0 -30 190 0 190 0 0 30 0 30 -120 0 c-146 0
-184 12 -206 66 -19 46 -10 90 24 112 21 14 53 17 162 19 l135 2 3 31 3 30
-133 0 c-85 -1 -147 -6 -171 -14z"/>
<path d="M9674 6895 c-9 -23 3 -45 26 -45 25 0 28 45 4 54 -22 8 -24 8 -30 -9z"/>
<path d="M9822 6883 c2 -20 9 -29 26 -31 19 -3 22 1 22 27 0 27 -4 31 -26 31
-22 0 -25 -4 -22 -27z"/>
<path d="M9977 6903 c-4 -3 -7 -17 -7 -30 0 -18 5 -22 25 -21 20 2 25 8 25 30
0 20 -5 28 -18 28 -10 0 -22 -3 -25 -7z"/>
<path d="M10123 6903 c-18 -7 -16 -42 2 -49 27 -11 43 3 38 30 -5 25 -15 30
-40 19z"/>
<path d="M10260 6881 c0 -27 3 -31 25 -29 21 2 25 7 23 28 -2 17 -10 26 -25
28 -20 3 -23 -1 -23 -27z"/>
<path d="M10412 6881 c4 -36 43 -37 43 -1 0 19 -5 25 -23 26 -19 1 -23 -3 -20
-25z"/>
<path d="M10560 6878 c0 -25 4 -29 23 -26 16 2 22 10 22 27 0 18 -6 25 -22 26
-19 1 -23 -3 -23 -27z"/>
<path d="M10707 6904 c-4 -4 -7 -17 -7 -28 0 -16 7 -22 26 -24 22 -2 25 2 22
25 -3 27 -26 41 -41 27z"/>
<path d="M8749 6844 c-11 -14 -10 -18 6 -30 26 -19 32 -18 40 7 5 14 2 25 -6
30 -19 12 -25 11 -40 -7z"/>
<path d="M15620 6830 c0 -20 5 -21 73 -18 56 2 72 6 72 18 0 12 -16 16 -72 18
-68 3 -73 2 -73 -18z"/>
<path d="M8683 6710 c-11 -17 -10 -21 9 -31 18 -10 24 -8 35 7 12 16 11 21 -4
31 -22 17 -26 16 -40 -7z"/>
<path d="M8615 6579 c-5 -14 -2 -25 6 -30 21 -13 27 -11 39 11 8 15 6 21 -9
30 -27 14 -29 13 -36 -11z"/>
<path d="M557 6515 c-103 -36 -145 -141 -96 -242 30 -63 81 -88 179 -88 98 0
149 25 179 88 77 159 -82 307 -262 242z m169 -70 c77 -32 79 -140 4 -177 -43
-22 -128 -23 -176 -3 -77 32 -79 140 -4 177 43 22 128 23 176 3z"/>
<path d="M8545 6449 c-5 -14 -2 -25 6 -30 19 -12 25 -11 40 7 11 14 10 18 -6
30 -26 19 -32 18 -40 -7z"/>
<path d="M8479 6319 c-11 -22 0 -38 27 -39 18 0 26 31 13 46 -16 19 -26 17
-40 -7z"/>
<path d="M14465 6211 l1 -80 -24 20 c-31 24 -108 26 -140 3 -70 -49 -77 -197
-11 -260 25 -24 39 -29 79 -29 32 0 54 6 67 18 24 21 37 22 29 2 -4 -11 2 -15
25 -15 l30 0 -2 210 -2 210 -27 0 -26 0 1 -79z m-30 -106 c48 -47 32 -172 -26
-195 -54 -23 -104 16 -110 85 -7 85 23 135 81 135 19 0 40 -9 55 -25z"/>
<path d="M16680 6260 c0 -25 4 -30 25 -30 21 0 25 5 25 30 0 25 -4 30 -25 30
-21 0 -25 -5 -25 -30z"/>
<path d="M17830 6080 l0 -210 25 0 25 0 0 210 0 210 -25 0 -25 0 0 -210z"/>
<path d="M11410 6270 c-83 -15 -131 -60 -150 -141 -24 -100 13 -205 86 -244
50 -26 174 -28 222 -2 l32 18 0 89 0 90 -70 0 c-63 0 -70 -2 -70 -20 0 -17 7
-20 45 -20 l45 0 0 -60 0 -59 -42 -12 c-112 -30 -199 38 -197 156 0 71 19 116
58 142 45 30 126 31 181 3 l40 -20 0 24 c0 16 -8 30 -21 37 -30 15 -117 26
-159 19z"/>
<path d="M11701 6071 l-1 -201 30 0 30 0 0 80 0 80 56 0 c62 0 119 22 135 52
6 11 11 39 11 62 2 96 -30 120 -163 124 l-97 4 -1 -201z m184 134 c16 -15 25
-36 25 -55 0 -49 -38 -80 -100 -80 l-50 0 0 80 0 80 50 0 c41 0 56 -5 75 -25z"/>
<path d="M11980 6250 c0 -18 7 -20 75 -20 l75 0 0 -180 0 -180 25 0 25 0 0
180 0 180 75 0 c68 0 75 2 75 20 0 19 -7 20 -175 20 -168 0 -175 -1 -175 -20z"/>
<path d="M12548 6264 c-11 -3 -18 -15 -18 -29 0 -22 2 -23 32 -14 56 16 116
11 138 -11 46 -46 4 -110 -71 -110 -32 0 -39 -3 -39 -20 0 -16 7 -20 35 -20
90 0 134 -66 82 -125 -28 -33 -86 -42 -145 -22 l-43 15 3 -26 c3 -30 27 -39
100 -41 100 -2 158 45 158 126 -1 41 -11 59 -50 86 -13 9 -19 17 -12 17 6 0
21 9 32 20 29 29 27 91 -4 127 -22 26 -30 28 -103 30 -43 1 -86 -1 -95 -3z"/>
<path d="M16230 6210 c0 -33 -3 -40 -20 -40 -13 0 -20 -7 -20 -20 0 -13 7 -20
20 -20 19 0 20 -7 20 -110 0 -104 1 -112 25 -135 19 -20 34 -25 75 -25 43 0
50 3 50 20 0 16 -7 20 -38 20 -21 0 -43 5 -50 12 -8 8 -12 48 -12 115 l0 103
50 0 c43 0 50 3 50 20 0 17 -7 20 -50 20 l-50 0 0 40 c0 36 -2 40 -25 40 -22
0 -25 -4 -25 -40z"/>
<path d="M13040 6140 l0 -80 -75 0 c-68 0 -75 -2 -75 -20 0 -18 7 -20 75 -20
l75 0 0 -75 c0 -68 2 -75 20 -75 18 0 20 7 20 75 l0 75 78 0 c71 0 78 2 78 20
0 18 -7 20 -78 20 l-78 0 0 80 c0 73 -2 80 -20 80 -18 0 -20 -7 -20 -80z"/>
<path d="M8412 6184 c-10 -20 -8 -24 10 -30 21 -6 53 20 43 36 -12 20 -43 16
-53 -6z"/>
<path d="M14035 6172 c-11 -2 -32 -13 -47 -24 -28 -19 -28 -19 -28 1 0 16 -6
21 -25 21 l-25 0 0 -150 0 -150 25 0 c25 0 25 0 25 95 0 131 19 165 88 165 57
0 72 -35 72 -166 0 -94 0 -94 25 -94 25 0 25 1 25 88 0 108 -7 152 -29 181
-18 23 -72 40 -106 33z"/>
<path d="M15075 6172 c-11 -2 -32 -13 -47 -24 l-28 -19 0 21 c0 16 -5 21 -22
18 -23 -3 -23 -6 -26 -150 l-3 -148 26 0 25 0 0 98 c0 75 4 103 17 122 23 34
33 40 70 40 52 0 63 -27 63 -152 l0 -108 25 0 25 0 0 105 c0 99 2 107 25 130
17 17 35 25 60 25 32 0 38 -4 51 -35 9 -22 14 -69 14 -130 0 -95 0 -95 25 -95
25 0 25 1 25 88 0 116 -8 157 -36 187 -33 36 -100 35 -143 -1 l-31 -26 -18 21
c-19 24 -66 40 -97 33z"/>
<path d="M13340 6020 l0 -150 24 0 c23 0 23 3 28 105 4 93 7 108 28 130 17 18
34 25 62 25 31 0 38 3 38 20 0 17 -7 20 -39 20 -24 0 -48 -8 -65 -21 l-26 -20
0 20 c0 16 -6 21 -25 21 l-25 0 0 -150z"/>
<path d="M13598 6163 c-11 -3 -18 -14 -18 -28 0 -22 3 -24 26 -15 66 25 154 2
154 -41 0 -16 -7 -19 -55 -19 -64 0 -119 -20 -134 -48 -31 -57 -2 -134 55
-148 35 -9 93 2 115 22 18 16 19 16 19 1 0 -11 8 -17 25 -17 l25 0 0 106 c0
118 -14 163 -56 183 -24 11 -121 13 -156 4z m162 -174 c0 -39 -48 -89 -85 -89
-44 0 -65 17 -65 54 0 49 23 63 108 65 41 1 42 0 42 -30z"/>
<path d="M14659 6155 c-37 -20 -59 -73 -59 -143 0 -96 50 -152 135 -152 52 0
84 17 113 60 21 31 23 44 20 108 -3 71 -5 76 -41 108 -32 30 -43 34 -89 34
-29 -1 -65 -7 -79 -15z m130 -47 c42 -45 40 -147 -4 -185 -36 -31 -71 -29
-106 6 -24 25 -29 37 -29 81 0 52 19 104 42 113 32 13 78 6 97 -15z"/>
<path d="M15670 6020 l0 -150 25 0 c25 0 25 0 25 95 0 134 18 165 96 165 27 0
34 4 34 20 0 17 -7 20 -39 20 -24 0 -48 -8 -65 -21 l-26 -20 0 20 c0 16 -6 21
-25 21 l-25 0 0 -150z"/>
<path d="M15933 6150 c-42 -25 -63 -68 -63 -128 0 -67 15 -105 53 -132 60 -45
218 -36 214 11 -1 17 -6 19 -27 12 -14 -4 -51 -8 -83 -8 -52 0 -62 3 -83 28
-13 15 -24 37 -24 48 0 18 8 19 115 19 113 0 115 0 115 23 0 46 -21 96 -51
121 -39 33 -117 36 -166 6z m122 -26 c16 -6 45 -54 45 -74 0 -6 -34 -10 -90
-10 -50 0 -90 4 -90 10 0 21 24 59 44 68 24 12 67 15 91 6z"/>
<path d="M16450 6020 l0 -150 25 0 25 0 0 105 c0 99 2 107 25 130 16 17 35 25
60 25 28 0 35 4 35 20 0 16 -7 20 -35 20 -20 0 -47 -7 -60 -16 -23 -15 -25
-15 -25 0 0 10 -9 16 -25 16 l-25 0 0 -150z"/>
<path d="M16680 6020 l0 -150 25 0 25 0 0 150 0 150 -25 0 -25 0 0 -150z"/>
<path d="M16877 6152 c-15 -9 -36 -35 -47 -58 -55 -112 13 -234 130 -234 66 0
110 17 110 42 0 16 -4 19 -22 13 -57 -17 -115 -17 -141 0 -20 13 -47 60 -47
81 0 2 50 4 110 4 l110 0 0 35 c0 47 -26 99 -60 119 -36 21 -107 20 -143 -2z
m132 -48 c12 -15 21 -35 21 -45 0 -17 -9 -19 -80 -19 -74 0 -80 2 -80 20 0 12
11 32 25 45 34 35 86 34 114 -1z"/>
<path d="M17132 6158 c3 -7 29 -76 57 -153 l52 -140 34 -1 33 -1 53 141 c28
78 54 147 57 154 3 10 -3 13 -23 10 -25 -3 -31 -13 -72 -126 -25 -68 -47 -121
-49 -120 -1 2 -23 57 -47 123 -41 112 -46 120 -72 123 -20 3 -26 0 -23 -10z"/>
<path d="M17518 6163 c-11 -3 -18 -14 -18 -28 0 -22 3 -24 26 -15 44 17 112
12 134 -10 37 -37 26 -47 -50 -52 -81 -4 -119 -27 -132 -76 -11 -43 13 -99 47
-112 53 -20 134 -2 148 32 3 7 6 3 6 -9 1 -18 7 -23 26 -23 l25 0 0 105 c0
158 -27 196 -135 194 -33 -1 -68 -3 -77 -6z m162 -165 c0 -35 -36 -87 -65 -94
-39 -10 -75 4 -85 32 -20 51 18 82 103 83 42 1 47 -1 47 -21z"/>
<path d="M8343 6057 c-9 -19 -7 -24 12 -33 18 -9 24 -7 35 9 10 17 10 23 -6
34 -24 18 -29 17 -41 -10z"/>
<path d="M12300 6020 c0 -18 7 -20 75 -20 68 0 75 2 75 20 0 18 -7 20 -75 20
-68 0 -75 -2 -75 -20z"/>
<path d="M8280 5930 c-6 -11 -8 -25 -5 -30 10 -16 42 -12 49 6 8 22 8 22 -14
34 -15 8 -21 6 -30 -10z"/>
<path d="M526 5857 c-54 -30 -78 -67 -84 -125 -6 -69 23 -132 79 -169 37 -25
52 -28 119 -28 67 0 82 3 119 28 61 40 85 99 78 186 -8 91 -20 121 -52 121
-14 0 -25 -2 -25 -4 0 -2 7 -32 16 -66 29 -115 -12 -200 -96 -200 -19 0 -20 8
-20 140 l0 140 -47 0 c-31 0 -62 -8 -87 -23z m84 -147 c0 -123 -4 -129 -67
-90 -63 38 -65 136 -3 178 64 43 70 36 70 -88z"/>
<path d="M8210 5800 c-6 -11 -9 -24 -6 -29 8 -12 46 -21 46 -11 0 5 3 15 6 23
3 9 -3 20 -15 26 -17 9 -22 8 -31 -9z"/>
<path d="M8141 5661 c-8 -15 -6 -20 15 -30 22 -10 26 -8 33 12 14 36 -30 53
-48 18z"/>
<path d="M8076 5534 c-8 -22 -8 -22 14 -34 16 -8 21 -6 31 11 9 17 8 23 -2 30
-21 13 -36 11 -43 -7z"/>
<path d="M443 5494 c-8 -22 4 -83 22 -110 18 -29 19 -39 3 -39 -7 0 -14 -15
-16 -32 l-3 -33 191 0 191 0 -3 32 -3 33 -77 -3 c-183 -8 -254 24 -252 115 0
44 -2 48 -24 49 -13 1 -26 -5 -29 -12z"/>
<path d="M14462 5398 c0 -40 -1 -74 -1 -76 -1 -1 -12 5 -25 13 -32 21 -100 22
-131 1 -73 -48 -81 -198 -14 -262 25 -24 39 -29 79 -29 32 0 54 6 67 18 24 21
37 22 29 2 -4 -11 2 -15 23 -15 l28 0 2 210 2 210 -29 0 -29 0 -1 -72z m-23
-114 c24 -30 29 -116 10 -158 -16 -35 -61 -52 -98 -36 -40 16 -55 56 -52 138
2 74 96 111 140 56z"/>
<path d="M16680 5440 c0 -25 4 -30 25 -30 21 0 25 5 25 30 0 25 -4 30 -25 30
-21 0 -25 -5 -25 -30z"/>
<path d="M17830 5260 l0 -210 25 0 25 0 0 210 0 210 -25 0 -25 0 0 -210z"/>
<path d="M11355 5433 c-50 -26 -74 -53 -91 -106 -34 -101 6 -225 83 -262 48
-23 126 -30 178 -16 71 19 76 27 78 121 l2 85 -72 3 c-68 3 -73 1 -73 -18 0
-17 6 -20 45 -20 l45 0 0 -60 0 -59 -37 -10 c-52 -15 -76 -14 -124 6 -51 20
-78 73 -79 151 0 107 49 162 148 162 33 0 67 -7 92 -20 48 -25 45 -25 45 5 0
19 -8 28 -38 40 -49 20 -163 19 -202 -2z"/>
<path d="M11705 5429 c-3 -13 -4 -103 -3 -199 l3 -175 28 -3 27 -3 0 80 0 81
44 0 c67 0 103 10 130 36 46 47 40 146 -12 180 -19 13 -52 19 -119 22 -90 4
-92 4 -98 -19z m187 -49 c10 -12 18 -35 18 -50 0 -48 -29 -72 -93 -78 l-57 -4
0 82 0 82 57 -4 c43 -4 61 -10 75 -28z"/>
<path d="M11980 5430 c0 -18 6 -20 75 -20 l75 0 0 -180 0 -180 25 0 25 0 0
180 0 179 73 3 c56 2 72 6 72 18 0 13 -27 15 -172 18 -168 2 -173 2 -173 -18z"/>
<path d="M12543 5443 c-7 -2 -13 -15 -13 -28 0 -22 2 -23 32 -14 56 16 116 11
138 -11 20 -20 26 -55 12 -77 -10 -16 -57 -33 -93 -33 -22 0 -29 -5 -29 -19 0
-15 10 -19 52 -23 82 -8 114 -67 65 -123 -28 -33 -86 -42 -145 -22 l-43 15 3
-26 c3 -30 27 -39 100 -41 59 -1 122 23 142 54 9 14 16 45 16 70 0 37 -5 51
-26 70 -15 14 -31 25 -36 25 -5 0 4 12 21 26 51 42 41 118 -19 149 -28 14
-148 20 -177 8z"/>
<path d="M16230 5390 c0 -33 -3 -40 -20 -40 -13 0 -20 -7 -20 -20 0 -13 7 -20
20 -20 19 0 20 -7 20 -110 0 -104 1 -112 25 -135 19 -20 34 -25 75 -25 43 0
50 3 50 20 0 16 -7 20 -38 20 -21 0 -43 5 -50 12 -8 8 -12 48 -12 115 l0 103
50 0 c43 0 50 3 50 20 0 17 -7 20 -50 20 l-50 0 0 40 c0 36 -2 40 -25 40 -22
0 -25 -4 -25 -40z"/>
<path d="M8006 5403 c-5 -11 -1 -22 10 -30 25 -18 31 -16 37 9 10 35 -35 54
-47 21z"/>
<path d="M13040 5320 l0 -80 -75 0 c-68 0 -75 -2 -75 -20 0 -18 7 -20 75 -20
l75 0 0 -75 c0 -68 2 -75 20 -75 18 0 20 7 20 75 l0 75 79 0 c69 0 79 2 77 18
-1 14 -14 18 -76 22 l-75 5 -3 78 c-3 69 -5 77 -22 77 -18 0 -20 -7 -20 -80z"/>
<path d="M14685 5344 c-22 -7 -41 -14 -42 -14 -1 0 -11 -15 -22 -34 -15 -24
-21 -50 -21 -95 0 -104 46 -161 129 -161 92 0 141 53 141 154 0 120 -82 187
-185 150z m104 -56 c42 -45 40 -147 -4 -185 -61 -54 -135 -5 -135 88 0 51 20
103 42 112 32 13 78 6 97 -15z"/>
<path d="M15798 5350 c-21 -4 -47 -15 -58 -25 -19 -18 -20 -17 -20 3 0 17 -6
22 -25 22 l-25 0 0 -150 0 -150 24 0 c24 0 24 1 28 111 3 102 5 112 27 130 14
11 39 19 62 19 32 0 39 4 39 19 0 26 -8 29 -52 21z"/>
<path d="M15966 5345 c-20 -7 -44 -19 -53 -26 -43 -36 -57 -147 -25 -208 31
-62 119 -87 215 -60 27 7 37 15 37 31 0 17 -4 19 -27 12 -16 -5 -54 -9 -86 -9
-52 0 -62 3 -83 28 -13 15 -24 37 -24 48 0 18 8 19 115 19 129 0 128 -1 105
81 -20 72 -99 110 -174 84z m89 -41 c16 -6 45 -54 45 -74 0 -6 -34 -10 -90
-10 -57 0 -90 4 -90 11 0 16 21 53 39 66 17 13 69 17 96 7z"/>
<path d="M16568 5351 c-15 -3 -37 -14 -48 -23 -19 -17 -20 -17 -20 2 0 15 -7
20 -25 20 l-25 0 0 -150 0 -150 25 0 25 0 0 104 c0 89 3 107 21 130 16 20 29
26 60 26 32 0 39 4 39 19 0 23 -16 29 -52 22z"/>
<path d="M13340 5200 l0 -150 24 0 c23 0 24 2 28 104 3 94 6 108 27 130 18 19
35 26 63 26 31 0 38 3 38 20 0 17 -7 20 -39 20 -24 0 -48 -8 -65 -21 l-26 -20
0 20 c0 16 -6 21 -25 21 l-25 0 0 -150z"/>
<path d="M13603 5343 c-16 -3 -23 -11 -23 -28 0 -22 3 -24 26 -15 66 25 154 2
154 -41 0 -16 -7 -19 -55 -19 -64 0 -119 -20 -134 -48 -12 -23 -15 -81 -5
-107 17 -44 122 -60 168 -24 20 16 26 17 26 6 0 -15 34 -30 44 -19 3 3 6 55 6
115 0 119 -12 156 -57 176 -23 11 -105 13 -150 4z m157 -174 c0 -40 -47 -89
-86 -89 -36 0 -64 26 -64 60 0 43 26 57 108 59 41 1 42 0 42 -30z"/>
<path d="M13910 5200 l0 -150 25 0 c25 0 25 1 25 89 0 97 12 146 40 161 22 12
70 13 88 2 21 -14 32 -72 32 -164 0 -87 0 -88 25 -88 25 0 25 0 25 93 -1 166
-22 207 -110 207 -33 0 -55 -6 -74 -21 l-26 -20 0 20 c0 16 -6 21 -25 21 l-25
0 0 -150z"/>
<path d="M14950 5200 l0 -150 25 0 c25 0 25 1 25 83 0 137 20 177 89 177 50 0
61 -28 61 -152 0 -107 0 -108 24 -108 24 0 24 1 28 111 3 102 5 112 27 130 28
23 84 25 102 3 8 -10 14 -56 17 -130 4 -112 5 -114 28 -114 23 0 24 2 24 85 0
109 -15 181 -43 200 -34 24 -101 19 -135 -10 l-29 -24 -23 24 c-31 33 -105 35
-144 4 l-26 -20 0 20 c0 16 -6 21 -25 21 l-25 0 0 -150z"/>
<path d="M16680 5200 l0 -150 25 0 25 0 0 150 0 150 -25 0 -25 0 0 -150z"/>
<path d="M16878 5335 c-14 -8 -35 -34 -47 -58 -56 -115 11 -237 129 -237 66 0
110 17 110 42 0 16 -4 19 -22 13 -57 -17 -115 -17 -141 0 -20 13 -47 60 -47
81 0 2 50 4 110 4 l110 0 0 30 c0 44 -23 93 -55 118 -33 26 -105 29 -147 7z
m131 -51 c12 -15 21 -35 21 -45 0 -17 -9 -19 -80 -19 -78 0 -80 1 -80 24 0 60
101 89 139 40z"/>
<path d="M17132 5338 c3 -7 27 -71 53 -143 26 -71 51 -135 56 -140 4 -6 21
-12 37 -13 29 -2 30 -1 86 148 31 83 56 153 56 156 0 3 -12 4 -26 2 -23 -3
-30 -15 -72 -128 -25 -68 -47 -120 -49 -115 -90 242 -89 240 -118 243 -20 3
-26 0 -23 -10z"/>
<path d="M17518 5343 c-11 -3 -18 -14 -18 -28 0 -22 3 -24 26 -15 44 17 112
12 134 -10 37 -37 26 -47 -50 -52 -79 -4 -119 -26 -132 -74 -10 -37 7 -89 35
-109 30 -21 96 -19 135 5 26 16 32 17 32 5 0 -9 10 -15 26 -15 l26 0 -4 121
-3 121 -33 29 c-29 26 -39 29 -95 28 -34 -1 -70 -3 -79 -6z m159 -180 c-11
-64 -74 -101 -126 -73 -25 13 -32 35 -21 65 12 31 40 44 104 44 l49 1 -6 -37z"/>
<path d="M7940 5270 c-8 -16 -6 -21 11 -31 17 -9 23 -8 30 2 13 21 11 36 -7
43 -22 8 -22 8 -34 -14z"/>
<path d="M12300 5200 c0 -18 7 -20 75 -20 68 0 75 2 75 20 0 18 -7 20 -75 20
-68 0 -75 -2 -75 -20z"/>
<path d="M530 5158 c-76 -39 -105 -117 -80 -210 42 -151 338 -151 380 0 37
136 -41 232 -190 232 -48 0 -78 -6 -110 -22z m205 -67 c63 -35 69 -105 14
-157 -28 -27 -36 -29 -109 -29 -73 0 -81 2 -109 29 -34 33 -43 61 -33 101 20
74 150 105 237 56z"/>
<path d="M7870 5140 c-8 -16 -6 -21 12 -31 18 -10 24 -8 35 7 12 16 11 21 -4
31 -23 18 -31 16 -43 -7z"/>
<path d="M1163 5063 c-17 -3 -23 -11 -23 -30 0 -20 4 -24 18 -18 75 31 123 27
148 -10 24 -37 7 -73 -83 -166 -51 -53 -83 -94 -83 -108 0 -20 4 -21 115 -21
108 0 115 1 115 20 0 18 -7 20 -86 20 l-87 0 80 83 c84 87 97 116 82 171 -12
44 -54 66 -121 65 -29 -1 -63 -4 -75 -6z"/>
<path d="M1486 5040 c-14 -17 -31 -50 -37 -73 -14 -52 -8 -152 12 -191 43 -87
152 -91 206 -9 14 21 18 48 18 118 0 140 -32 185 -130 185 -36 0 -47 -5 -69
-30z m121 -24 c26 -22 28 -31 31 -108 4 -94 -6 -130 -42 -153 -35 -23 -77 -3
-93 45 -27 80 -9 204 34 229 27 16 39 13 70 -13z"/>
<path d="M7805 5009 c-5 -14 -2 -25 6 -30 21 -13 27 -11 39 11 8 15 6 21 -9
30 -27 14 -29 13 -36 -11z"/>
<path d="M10185 4983 c-11 -3 -34 -20 -51 -39 l-32 -34 -236 0 -236 0 0 -40 0
-40 240 0 c140 0 240 -4 240 -9 0 -5 11 -23 25 -39 49 -58 155 -48 193 18 l17
30 238 0 237 0 0 40 0 40 -239 0 -239 0 -17 26 c-26 41 -85 60 -140 47z"/>
<path d="M1840 4900 c0 -5 20 -10 45 -10 25 0 45 5 45 10 0 6 -20 10 -45 10
-25 0 -45 -4 -45 -10z"/>
<path d="M7737 4878 c-6 -22 6 -38 29 -38 18 0 26 31 13 46 -17 21 -36 17 -42
-8z"/>
<path d="M12370 4640 l0 -210 25 0 25 0 0 210 0 210 -25 0 -25 0 0 -210z"/>
<path d="M12573 4838 c-22 -11 -43 -54 -43 -89 0 -14 -7 -19 -25 -19 -18 0
-25 -5 -25 -20 0 -15 7 -20 25 -20 l25 0 0 -135 0 -135 25 0 25 0 0 135 0 135
40 0 c33 0 40 3 40 20 0 17 -7 20 -40 20 -36 0 -40 3 -40 24 0 34 26 56 66 56
27 0 34 4 34 20 0 17 -6 20 -42 19 -24 0 -53 -5 -65 -11z"/>
<path d="M13770 4820 c0 -25 4 -30 25 -30 21 0 25 5 25 30 0 25 -4 30 -25 30
-21 0 -25 -5 -25 -30z"/>
<path d="M13965 4825 c-17 -16 -25 -35 -25 -60 0 -31 -3 -35 -25 -35 -33 0
-35 -37 -2 -42 21 -3 22 -7 25 -136 3 -131 3 -133 25 -130 21 3 22 7 25 136
l3 132 39 0 c33 0 40 3 40 20 0 17 -7 20 -40 20 -38 0 -40 2 -40 30 0 32 22
50 64 50 19 0 26 5 26 20 0 17 -7 20 -45 20 -35 0 -52 -6 -70 -25z"/>
<path d="M14120 4820 c0 -25 4 -30 25 -30 21 0 25 5 25 30 0 25 -4 30 -25 30
-21 0 -25 -5 -25 -30z"/>
<path d="M15140 4820 c0 -25 4 -30 25 -30 21 0 25 5 25 30 0 25 -4 30 -25 30
-21 0 -25 -5 -25 -30z"/>
<path d="M14920 4770 c0 -29 -4 -40 -15 -40 -8 0 -15 -9 -15 -20 0 -11 7 -20
15 -20 12 0 15 -17 15 -94 0 -146 19 -176 115 -176 38 0 45 3 45 20 0 17 -7
20 -39 20 -62 0 -71 16 -71 131 l0 99 55 0 c48 0 55 2 55 20 0 18 -7 20 -55
20 l-55 0 0 40 c0 36 -2 40 -25 40 -22 0 -25 -4 -25 -40z"/>
<path d="M11440 4700 l0 -80 -75 0 c-68 0 -75 -2 -75 -20 0 -18 7 -20 75 -20
l75 0 0 -76 c0 -72 1 -75 23 -72 20 3 22 9 24 68 1 36 2 68 2 73 1 4 35 7 76
7 68 0 75 2 75 20 0 18 -7 20 -75 20 l-75 0 -2 38 c0 20 0 46 1 57 4 38 -9 65
-29 65 -18 0 -20 -7 -20 -80z"/>
<path d="M7669 4749 c-9 -17 -8 -23 2 -30 21 -13 36 -11 43 7 8 22 8 22 -14
34 -16 8 -21 6 -31 -11z"/>
<path d="M451 4713 c-41 -145 44 -263 189 -263 145 0 230 118 189 263 -8 32
-14 37 -38 37 l-29 0 15 -51 c18 -62 7 -112 -33 -150 -23 -21 -35 -24 -104
-24 -69 0 -81 3 -104 24 -39 36 -50 91 -33 152 l15 49 -29 0 c-24 0 -30 -5
-38 -37z"/>
<path d="M13292 4729 c-71 -15 -120 -98 -109 -182 11 -81 69 -128 157 -126 78
1 104 11 108 38 3 21 1 23 -20 17 -44 -13 -97 -18 -122 -12 -34 8 -66 44 -66
73 0 23 2 23 110 23 l110 0 0 36 c0 94 -74 153 -168 133z m97 -65 c12 -15 21
-35 21 -45 0 -17 -9 -19 -85 -19 -79 0 -85 1 -85 20 0 64 109 95 149 44z"/>
<path d="M15760 4732 c-14 -2 -37 -13 -52 -24 -28 -19 -28 -19 -28 1 0 16 -6
21 -25 21 l-25 0 0 -150 0 -150 25 0 c25 0 25 1 25 89 0 127 21 171 83 171 63
0 77 -29 77 -159 l0 -101 25 0 25 0 0 105 c0 104 -13 163 -39 180 -21 12 -66
21 -91 17z"/>
<path d="M11745 4705 c-32 -31 -34 -86 -4 -114 12 -11 46 -26 75 -32 65 -15
91 -38 75 -68 -18 -34 -68 -39 -148 -15 -20 5 -23 3 -23 -19 0 -19 6 -26 31
-31 95 -19 167 2 188 53 25 59 -2 92 -99 121 -60 18 -70 24 -70 43 0 13 5 28
12 35 14 14 87 16 122 2 23 -9 26 -7 26 14 0 30 -16 36 -96 36 -56 0 -68 -4
-89 -25z"/>
<path d="M12073 4710 c-44 -26 -63 -68 -63 -137 0 -70 23 -112 73 -136 65 -31
197 -15 194 24 -1 17 -6 19 -32 12 -16 -4 -54 -8 -83 -8 -46 0 -57 4 -78 28
-13 15 -24 37 -24 48 0 18 8 19 115 19 l115 0 -6 43 c-8 53 -28 91 -56 111
-32 23 -115 21 -155 -4z m137 -40 c11 -11 20 -24 20 -29 0 -5 3 -16 6 -25 5
-14 -6 -16 -85 -16 -57 0 -91 4 -91 10 0 18 29 68 42 73 32 13 89 6 108 -13z"/>
<path d="M12845 4713 c4 -10 27 -72 51 -138 25 -66 48 -125 52 -132 4 -7 22
-14 39 -17 23 -5 33 -2 38 12 23 58 105 283 105 287 0 3 -11 5 -24 5 -21 0
-28 -12 -65 -112 -23 -62 -46 -118 -50 -125 -5 -9 -23 28 -49 101 -23 63 -42
119 -42 125 0 6 -14 11 -31 11 -26 0 -30 -3 -24 -17z"/>
<path d="M13540 4580 l0 -150 25 0 c25 0 25 1 25 79 0 141 20 181 90 181 33 0
40 3 40 20 0 17 -7 20 -39 20 -24 0 -48 -8 -65 -21 l-26 -20 0 20 c0 16 -6 21
-25 21 l-25 0 0 -150z"/>
<path d="M13770 4580 l0 -150 25 0 25 0 0 150 0 150 -25 0 -25 0 0 -150z"/>
<path d="M14120 4580 l0 -150 25 0 25 0 0 150 0 150 -25 0 -25 0 0 -150z"/>
<path d="M14316 4709 c-38 -30 -56 -71 -56 -129 0 -101 52 -160 142 -160 64 0
98 14 98 41 0 16 -4 20 -17 14 -101 -40 -173 6 -173 110 0 64 39 105 100 105
23 0 50 -5 61 -10 27 -15 40 17 14 36 -31 23 -137 18 -169 -7z"/>
<path d="M14608 4723 c-11 -3 -18 -14 -18 -28 0 -22 3 -24 26 -15 44 17 112
12 134 -10 36 -36 26 -50 -35 -50 -64 0 -119 -20 -134 -48 -18 -33 -13 -97 8
-123 16 -20 28 -24 79 -24 45 0 65 5 81 19 19 17 21 17 21 3 0 -12 8 -17 26
-17 l26 0 -4 121 -3 121 -33 29 c-29 26 -39 29 -95 28 -34 -1 -70 -3 -79 -6z
m159 -180 c-14 -87 -131 -116 -149 -37 -11 47 25 72 106 73 l49 1 -6 -37z"/>
<path d="M15140 4580 l0 -150 25 0 25 0 0 150 0 150 -25 0 -25 0 0 -150z"/>
<path d="M15339 4715 c-37 -20 -59 -73 -59 -143 0 -96 50 -152 135 -152 85 0
135 56 135 152 0 104 -46 158 -134 158 -28 -1 -63 -7 -77 -15z m136 -57 c24
-29 27 -38 23 -92 -4 -49 -9 -63 -32 -83 -37 -31 -71 -29 -107 6 -24 25 -29
37 -29 81 0 52 19 104 42 113 38 16 77 6 103 -25z"/>
<path d="M7601 4619 c-11 -18 -11 -23 1 -30 21 -14 36 -11 47 9 7 14 5 21 -10
30 -24 15 -22 16 -38 -9z"/>
<path d="M12660 4580 c0 -18 7 -20 75 -20 68 0 75 2 75 20 0 18 -7 20 -75 20
-68 0 -75 -2 -75 -20z"/>
<path d="M7542 4498 c-17 -17 -15 -31 6 -45 15 -9 21 -7 31 9 7 11 11 21 9 22
-2 1 -10 7 -19 14 -12 9 -18 9 -27 0z"/>
<path d="M661 4353 c-19 -19 -35 -52 -46 -89 -29 -107 -55 -135 -95 -99 -26
24 -33 81 -17 143 l14 52 -28 0 c-25 0 -30 -5 -40 -42 -14 -54 -6 -148 15
-181 33 -50 122 -60 160 -18 9 10 26 51 37 92 24 87 32 99 70 99 57 0 74 -91
34 -187 l-14 -33 34 0 c32 0 34 2 44 50 30 138 -6 225 -98 237 -35 5 -44 2
-70 -24z"/>
<path d="M7469 4358 c-10 -18 -8 -24 7 -35 16 -12 21 -11 31 4 18 23 16 31 -7
43 -16 8 -21 6 -31 -12z"/>
<path d="M7401 4221 c-8 -15 -6 -20 13 -29 21 -9 25 -8 30 10 10 39 -24 55
-43 19z"/>
<path d="M7332 4095 c-9 -20 -8 -25 8 -30 39 -12 57 25 21 44 -15 8 -20 6 -29
-14z"/>
<path d="M16090 3820 l0 -210 25 0 25 0 0 210 0 210 -25 0 -25 0 0 -210z"/>
<path d="M17240 3820 l0 -210 25 0 25 0 0 210 0 210 -25 0 -25 0 0 -210z"/>
<path d="M18450 3820 l0 -210 25 0 c16 0 25 6 25 15 0 20 5 19 40 -6 40 -30
102 -22 144 20 27 27 31 39 34 100 5 79 -13 129 -56 157 -36 24 -97 21 -133
-5 l-29 -22 0 81 c0 79 0 80 -25 80 l-25 0 0 -210z m191 31 c19 -15 24 -30 27
-84 4 -63 3 -68 -26 -97 -35 -34 -52 -37 -93 -13 -54 32 -62 141 -13 190 28
28 73 30 105 4z"/>
<path d="M19350 3949 l0 -80 -26 20 c-39 31 -113 29 -148 -4 -35 -32 -46 -64
-46 -134 0 -44 6 -66 23 -92 43 -64 113 -78 166 -33 30 25 31 25 31 5 0 -16 6
-21 25 -21 l25 0 0 210 0 210 -25 0 c-25 0 -25 -1 -25 -81z m-33 -101 c28 -30
37 -85 24 -135 -13 -47 -26 -61 -68 -69 -62 -12 -111 74 -89 161 16 63 92 87
133 43z"/>
<path d="M19700 3949 l0 -80 -26 20 c-32 25 -104 28 -139 5 -73 -48 -72 -216
3 -274 42 -34 123 -21 154 24 4 6 8 1 8 -11 0 -18 6 -23 25 -23 l25 0 0 210 0
210 -25 0 c-25 0 -25 -1 -25 -81z m-32 -102 c30 -32 38 -102 19 -150 -28 -66
-101 -74 -137 -14 -32 52 -22 144 17 175 27 20 77 15 101 -11z"/>
<path d="M19850 4000 c0 -25 4 -30 25 -30 21 0 25 5 25 30 0 25 -4 30 -25 30
-21 0 -25 -5 -25 -30z"/>
<path d="M620 3926 c0 -94 0 -94 25 -92 25 1 25 2 25 94 0 92 0 92 -25 92 -25
0 -25 0 -25 -94z"/>
<path d="M11355 3993 c-50 -26 -74 -53 -91 -106 -34 -101 6 -225 83 -262 48
-23 126 -30 178 -16 71 19 76 27 78 121 l2 85 -72 3 c-68 3 -73 1 -73 -18 0
-17 6 -20 45 -20 l45 0 0 -60 0 -59 -37 -10 c-52 -15 -76 -14 -124 6 -32 12
-46 26 -60 57 -22 49 -24 133 -5 181 30 71 133 96 225 55 24 -11 44 -20 45
-20 0 0 1 11 1 25 0 19 -8 28 -38 40 -49 20 -163 19 -202 -2z"/>
<path d="M11705 3989 c-3 -13 -4 -103 -3 -199 l3 -175 28 -3 27 -3 0 80 0 81
44 0 c67 0 103 10 130 36 46 47 40 146 -12 180 -19 13 -52 19 -119 22 -90 4
-92 4 -98 -19z m187 -49 c10 -12 18 -35 18 -50 0 -48 -29 -72 -93 -78 l-57 -4
0 82 0 82 57 -4 c43 -4 61 -10 75 -28z"/>
<path d="M11980 3990 c0 -18 6 -20 75 -20 l75 0 0 -180 0 -180 25 0 25 0 0
180 0 179 73 3 c56 2 72 6 72 18 0 13 -27 15 -172 18 -168 2 -173 2 -173 -18z"/>
<path d="M12543 4003 c-7 -2 -13 -15 -13 -28 0 -22 2 -23 32 -14 56 16 116 11
138 -11 20 -20 26 -55 12 -77 -10 -16 -57 -33 -93 -33 -22 0 -29 -5 -29 -19 0
-15 10 -19 52 -23 82 -8 114 -67 65 -123 -28 -33 -86 -42 -145 -22 l-43 15 3
-26 c3 -30 27 -39 100 -41 59 -1 122 23 142 54 9 14 16 45 16 70 0 37 -5 51
-26 70 -15 14 -31 25 -36 25 -5 0 4 12 21 26 51 42 41 118 -19 149 -28 14
-148 20 -177 8z"/>
<path d="M14330 3950 c0 -33 -3 -40 -20 -40 -13 0 -20 -7 -20 -20 0 -13 7 -20
20 -20 19 0 20 -7 20 -109 0 -136 9 -152 93 -159 53 -4 57 -3 57 17 0 18 -6
21 -38 21 -21 0 -43 5 -50 12 -8 8 -12 48 -12 115 l0 103 50 0 c43 0 50 3 50
20 0 17 -7 20 -50 20 l-50 0 0 40 c0 36 -2 40 -25 40 -22 0 -25 -4 -25 -40z"/>
<path d="M7266 3964 c-8 -22 -8 -22 14 -34 16 -8 21 -6 31 11 9 17 8 23 -2 30
-21 13 -36 11 -43 -7z"/>
<path d="M13040 3880 l0 -80 -75 0 c-68 0 -75 -2 -75 -20 0 -18 7 -20 75 -20
l75 0 0 -75 c0 -68 2 -75 20 -75 18 0 20 7 20 75 l0 75 79 0 c69 0 79 2 77 18
-1 14 -14 18 -76 22 l-75 5 -3 78 c-3 69 -5 77 -22 77 -18 0 -20 -7 -20 -80z"/>
<path d="M13406 3909 c-48 -8 -76 -39 -76 -83 0 -47 17 -63 95 -88 62 -20 70
-26 73 -50 6 -47 -43 -57 -150 -32 -29 7 -37 -7 -19 -34 12 -19 120 -27 166
-12 46 15 71 63 54 107 -13 35 -19 39 -101 63 -58 18 -68 24 -68 43 0 13 5 28
12 35 14 14 87 16 122 2 24 -9 26 -7 26 15 0 25 -7 28 -70 37 -14 2 -43 1 -64
-3z"/>
<path d="M15006 3909 c-15 -4 -37 -16 -47 -25 -18 -16 -19 -16 -19 4 0 17 -6
22 -25 22 l-25 0 0 -150 0 -150 25 0 25 0 0 108 c0 100 2 110 23 130 15 14 36
22 60 22 56 0 67 -24 67 -152 l0 -108 25 0 25 0 0 105 c0 104 -13 163 -39 180
-25 15 -67 21 -95 14z"/>
<path d="M15333 3909 c-75 -15 -113 -68 -113 -155 0 -94 56 -154 143 -154 63
0 97 14 97 41 0 16 -4 19 -17 14 -106 -42 -185 17 -170 129 8 60 45 89 106 84
25 -3 54 -8 64 -12 14 -7 17 -3 17 18 0 14 -3 26 -7 26 -5 1 -26 4 -48 8 -22
5 -55 5 -72 1z"/>
<path d="M15636 3909 c-83 -14 -135 -116 -106 -206 23 -72 73 -104 157 -102
72 1 97 11 101 38 3 20 0 23 -15 17 -38 -15 -113 -18 -141 -7 -28 12 -52 47
-52 76 0 12 20 15 110 15 l110 0 0 41 c0 51 -30 103 -68 117 -47 17 -56 19
-96 11z m91 -61 c13 -12 23 -32 23 -45 0 -22 -3 -23 -85 -23 -79 0 -85 1 -85
20 0 60 99 93 147 48z"/>
<path d="M16335 3910 c-50 -11 -72 -28 -94 -73 -39 -81 -19 -169 48 -214 26
-18 47 -23 90 -22 80 1 105 10 109 38 3 21 1 23 -20 17 -94 -29 -162 -14 -184
40 -8 19 -14 36 -14 39 0 3 52 5 116 5 l117 0 -6 52 c-10 85 -80 135 -162 118z
m94 -66 c12 -15 21 -35 21 -45 0 -17 -9 -19 -85 -19 -83 0 -85 0 -85 24 0 61
110 90 149 40z"/>
<path d="M17000 3910 c-56 -10 -74 -25 -93 -77 -22 -62 -21 -107 2 -160 24
-51 63 -73 129 -73 67 0 112 17 112 42 0 16 -4 19 -22 14 -93 -29 -162 -13
-184 40 -8 19 -14 36 -14 39 0 3 52 5 115 5 l115 0 0 30 c0 93 -72 156 -160
140z m89 -66 c12 -15 21 -35 21 -45 0 -17 -9 -19 -85 -19 -79 0 -85 1 -85 20
0 64 109 95 149 44z"/>
<path d="M20130 3912 c-14 -2 -37 -13 -52 -24 -28 -19 -28 -19 -28 1 0 16 -6
21 -25 21 l-25 0 0 -150 0 -150 24 0 c23 0 24 2 28 104 3 94 6 108 27 130 24
26 72 35 98 18 23 -14 33 -64 33 -158 0 -94 0 -94 25 -94 l25 0 0 105 c0 104
-13 163 -39 180 -21 12 -66 21 -91 17z"/>
<path d="M10204 3875 l-6 -35 -284 0 -284 0 0 -40 0 -40 265 0 265 0 -6 -30
c-5 -23 -3 -30 9 -30 9 0 19 4 22 10 16 26 43 30 68 10 37 -29 51 -26 44 10
l-6 30 264 0 265 0 0 40 0 40 -284 0 -284 0 -6 35 c-4 20 -13 35 -21 35 -8 0
-17 -15 -21 -35z"/>
<path d="M13665 3877 c-79 -79 -62 -224 30 -263 68 -28 185 -11 185 27 0 16
-4 18 -27 12 -16 -5 -52 -8 -81 -8 -46 0 -57 4 -78 28 -13 15 -24 37 -24 47 0
18 9 20 112 22 l113 3 -3 40 c-8 87 -50 125 -138 125 -50 0 -59 -3 -89 -33z
m155 -29 c11 -12 20 -32 20 -45 0 -22 -3 -23 -86 -23 l-86 0 6 28 c10 39 42
62 87 62 26 0 44 -7 59 -22z"/>
<path d="M13978 3770 c-2 -77 -1 -145 0 -150 4 -12 42 -14 42 -2 0 4 2 52 4
107 4 93 6 101 31 122 32 28 78 30 105 3 18 -18 20 -33 20 -130 l0 -110 25 0
25 0 0 105 c0 114 -14 166 -48 184 -34 18 -106 13 -129 -8 -22 -21 -35 -18
-26 5 4 10 -3 14 -20 14 l-26 0 -3 -140z"/>
<path d="M14600 3897 c-45 -23 -70 -73 -70 -141 0 -106 51 -156 159 -156 66 0
101 14 101 40 0 17 -4 19 -27 13 -16 -5 -52 -8 -81 -8 -46 0 -57 4 -78 28 -13
15 -24 37 -24 48 0 18 8 19 116 19 l116 0 -7 43 c-9 54 -34 99 -66 114 -31 16
-107 16 -139 0z m130 -47 c11 -11 20 -31 20 -45 0 -25 -1 -25 -85 -25 -53 0
-85 4 -85 11 0 16 21 53 39 66 26 20 88 16 111 -7z"/>
<path d="M16552 3898 c3 -7 28 -76 57 -154 51 -139 52 -140 82 -139 16 1 33 6
38 11 8 8 111 277 111 289 0 3 -11 5 -24 5 -26 0 -26 -2 -101 -203 -10 -26
-19 -46 -21 -45 -1 2 -23 57 -47 123 -41 111 -47 120 -72 123 -20 3 -26 0 -23
-10z"/>
<path d="M17599 3870 c-44 -47 -58 -106 -39 -167 23 -72 73 -104 157 -102 72
1 97 11 101 38 3 21 1 23 -20 17 -44 -13 -97 -18 -122 -12 -34 8 -66 44 -66
73 0 23 2 23 110 23 l110 0 0 43 c0 47 -25 93 -62 113 -13 8 -47 13 -77 14
-50 0 -57 -3 -92 -40z m158 -22 c13 -12 23 -32 23 -45 0 -22 -3 -23 -85 -23
-79 0 -85 1 -85 20 0 60 99 93 147 48z"/>
<path d="M17910 3760 l0 -150 25 0 c25 0 25 1 25 83 0 137 20 177 89 177 50 0
61 -28 61 -152 0 -107 0 -108 24 -108 24 0 24 1 28 111 3 102 5 112 27 130 28
23 84 25 102 3 8 -10 14 -56 17 -130 4 -112 5 -114 28 -114 23 0 24 2 24 85 0
109 -15 181 -43 200 -34 24 -101 19 -135 -10 l-29 -24 -23 24 c-31 33 -105 35
-144 4 l-26 -20 0 20 c0 16 -6 21 -25 21 l-25 0 0 -150z"/>
<path d="M18853 3890 c-43 -26 -64 -71 -64 -136 0 -99 56 -154 158 -154 65 0
99 13 106 40 5 20 3 21 -26 13 -18 -4 -56 -8 -85 -8 -46 0 -57 4 -78 28 -13
15 -24 37 -24 48 0 18 8 19 115 19 103 0 115 2 115 18 0 39 -24 97 -50 124
-24 24 -37 28 -82 28 -35 0 -64 -7 -85 -20z m129 -34 c20 -14 40 -61 31 -70
-11 -11 -173 -7 -173 4 0 18 29 68 42 73 25 10 83 6 100 -7z"/>
<path d="M19850 3760 l0 -150 25 0 25 0 0 150 0 150 -25 0 -25 0 0 -150z"/>
<path d="M20392 3894 c-36 -25 -52 -68 -52 -136 0 -69 20 -111 62 -134 34 -20
89 -17 126 6 l34 21 -7 -33 c-4 -18 -13 -43 -21 -55 -16 -26 -78 -38 -118 -24
-40 16 -48 14 -44 -11 5 -37 99 -50 163 -24 59 25 69 59 73 244 l4 162 -26 0
c-20 0 -26 -5 -26 -21 l0 -20 -26 20 c-33 26 -109 28 -142 5z m135 -46 c27
-30 36 -81 23 -129 -18 -65 -82 -90 -131 -50 -19 15 -24 30 -27 84 -4 60 -2
68 21 91 34 34 85 35 114 4z"/>
<path d="M7196 3833 c-5 -11 -1 -22 10 -30 25 -18 31 -16 37 9 10 35 -35 54
-47 21z"/>
<path d="M12300 3760 c0 -18 7 -20 75 -20 68 0 75 2 75 20 0 18 -7 20 -75 20
-68 0 -75 -2 -75 -20z"/>
<path d="M15860 3760 c0 -18 7 -20 75 -20 68 0 75 2 75 20 0 18 -7 20 -75 20
-68 0 -75 -2 -75 -20z"/>
<path d="M780 3685 l0 -55 -230 0 -230 0 0 -37 c0 -20 5 -63 12 -95 12 -57 13
-58 46 -58 28 0 33 3 28 17 -4 9 -10 36 -13 60 l-6 43 197 0 196 0 0 -55 c0
-52 1 -55 25 -55 l25 0 0 145 0 145 -25 0 c-24 0 -25 -3 -25 -55z"/>
<path d="M7129 3704 c-11 -14 -10 -18 6 -30 26 -19 32 -18 40 7 5 14 2 25 -6
30 -19 12 -25 11 -40 -7z"/>
<path d="M7054 3592 c-7 -4 -8 -15 -4 -28 7 -17 14 -20 34 -17 30 6 33 20 9
39 -21 16 -24 16 -39 6z"/>
<path d="M6924 3551 c-18 -5 -20 -10 -13 -28 9 -26 37 -31 45 -9 9 23 -9 43
-32 37z"/>
<path d="M6774 3504 c-22 -9 -3 -44 23 -44 20 0 24 4 21 22 -3 22 -22 31 -44
22z"/>
<path d="M6642 3461 c-15 -9 -13 -42 3 -48 20 -6 37 14 30 36 -7 23 -13 25
-33 12z"/>
<path d="M6494 3414 c-22 -9 -3 -44 23 -44 20 0 24 4 21 22 -3 22 -22 31 -44
22z"/>
<path d="M6353 3372 c-15 -9 -6 -52 11 -52 21 0 38 18 34 36 -4 21 -26 28 -45
16z"/>
<path d="M6222 3332 c-16 -3 -22 -8 -18 -19 3 -8 6 -21 6 -29 0 -11 5 -11 25
-2 39 18 29 56 -13 50z"/>
<path d="M330 3175 l0 -145 250 0 250 0 0 35 0 35 -120 0 -120 0 0 100 0 100
-25 0 -25 0 0 -100 0 -100 -80 0 -80 0 0 110 0 110 -25 0 -25 0 0 -145z"/>
<path d="M6073 3282 c-7 -4 -10 -17 -7 -28 4 -16 12 -20 30 -16 25 5 28 10 18
36 -7 17 -22 20 -41 8z"/>
<path d="M5943 3243 c-7 -2 -13 -16 -13 -29 0 -25 15 -30 39 -15 8 5 11 16 6
30 -6 21 -11 23 -32 14z"/>
<path d="M16090 3000 l0 -210 25 0 25 0 0 210 0 210 -25 0 -25 0 0 -210z"/>
<path d="M17240 3000 l0 -210 25 0 25 0 0 210 0 210 -25 0 -25 0 0 -210z"/>
<path d="M18450 3000 l0 -210 25 0 c19 0 25 5 25 21 0 20 1 20 31 -5 57 -48
137 -28 174 44 20 39 19 133 -1 177 -10 19 -28 41 -41 50 -33 22 -101 19 -135
-7 l-28 -21 0 81 c0 79 0 80 -25 80 l-25 0 0 -210z m191 31 c19 -15 24 -30 27
-83 4 -57 1 -68 -21 -93 -18 -22 -33 -29 -60 -29 -45 0 -64 16 -77 65 -30 112
54 202 131 140z"/>
<path d="M19350 3129 l0 -80 -26 20 c-39 31 -113 29 -148 -4 -35 -32 -46 -64
-46 -134 0 -44 6 -66 23 -92 43 -64 113 -78 166 -33 30 25 31 25 31 5 0 -16 6
-21 25 -21 l25 0 0 210 0 210 -25 0 c-25 0 -25 -1 -25 -81z m-31 -105 c27 -35
35 -82 22 -131 -13 -47 -26 -61 -68 -69 -62 -12 -111 74 -89 161 17 66 96 89
135 39z"/>
<path d="M19700 3129 l0 -80 -26 20 c-31 25 -92 28 -132 7 -42 -22 -57 -60
-57 -141 0 -63 3 -76 28 -108 42 -55 116 -63 165 -17 l22 21 0 -21 c0 -15 7
-20 25 -20 l25 0 0 210 0 210 -25 0 c-25 0 -25 -1 -25 -81z m-32 -102 c27 -29
38 -95 22 -141 -32 -99 -145 -81 -157 26 -7 58 1 92 27 118 28 28 81 26 108
-3z"/>
<path d="M19850 3180 c0 -25 4 -30 25 -30 21 0 25 5 25 30 0 25 -4 30 -25 30
-21 0 -25 -5 -25 -30z"/>
<path d="M5803 3192 c-20 -13 -5 -51 18 -45 24 7 31 17 23 37 -7 17 -22 20
-41 8z"/>
<path d="M11355 3175 c-48 -26 -73 -54 -89 -103 -41 -119 6 -242 106 -278 62
-23 168 -13 211 19 14 10 18 29 20 97 l1 85 -72 3 c-67 3 -72 1 -72 -18 0 -17
6 -20 45 -20 l45 0 0 -60 0 -59 -42 -12 c-113 -30 -198 38 -198 159 0 106 50
162 145 162 28 0 69 -9 92 -19 41 -19 41 -19 46 0 9 33 -36 54 -128 57 -59 2
-88 -1 -110 -13z"/>
<path d="M11700 2990 l0 -200 30 0 30 0 0 80 0 80 55 0 c63 0 118 23 135 56 7
12 13 41 13 64 0 89 -47 120 -178 120 l-85 0 0 -200z m192 130 c10 -12 18 -35
18 -50 0 -48 -29 -72 -93 -78 l-57 -4 0 82 0 82 57 -4 c43 -4 61 -10 75 -28z"/>
<path d="M11980 3170 c0 -18 7 -20 75 -20 l75 0 0 -180 0 -180 25 0 25 0 0
180 0 180 75 0 c68 0 75 2 75 20 0 19 -7 20 -175 20 -168 0 -175 -1 -175 -20z"/>
<path d="M12543 3184 c-7 -3 -13 -16 -13 -29 0 -22 2 -23 32 -14 56 16 116 11
138 -11 20 -20 26 -55 12 -77 -10 -16 -57 -33 -93 -33 -22 0 -29 -5 -29 -20 0
-16 7 -20 35 -20 78 0 120 -49 95 -110 -20 -47 -88 -62 -163 -36 l-38 14 3
-26 c3 -30 27 -39 100 -41 100 -2 158 44 158 127 0 41 -11 60 -50 86 -13 9
-19 16 -12 16 6 0 21 9 32 20 29 29 27 91 -4 127 -23 26 -30 28 -108 30 -45 1
-89 0 -95 -3z"/>
<path d="M14330 3130 c0 -33 -3 -40 -20 -40 -13 0 -20 -7 -20 -20 0 -13 7 -20
20 -20 19 0 20 -7 20 -110 0 -104 1 -112 25 -135 19 -20 34 -25 75 -25 43 0
50 3 50 20 0 16 -7 20 -38 20 -21 0 -43 5 -50 12 -8 8 -12 48 -12 115 l0 103
50 0 c43 0 50 3 50 20 0 17 -7 20 -50 20 l-50 0 0 40 c0 36 -2 40 -25 40 -22
0 -25 -4 -25 -40z"/>
<path d="M5667 3153 c-11 -3 -16 -10 -13 -20 3 -8 6 -19 6 -24 0 -8 36 -4 47
5 5 4 -10 46 -16 45 -3 -1 -14 -3 -24 -6z"/>
<path d="M13040 3060 l0 -80 -75 0 c-68 0 -75 -2 -75 -20 0 -18 7 -20 75 -20
l75 0 0 -75 c0 -68 2 -75 20 -75 18 0 20 7 20 75 l0 74 77 3 c64 2 78 6 81 20
3 15 -7 18 -75 20 l-78 3 -3 78 c-3 69 -5 77 -22 77 -18 0 -20 -7 -20 -80z"/>
<path d="M5516 3101 c-10 -16 5 -41 24 -41 23 0 32 13 24 34 -7 17 -39 22 -48
7z"/>
<path d="M17000 3090 c-56 -10 -74 -25 -93 -77 -22 -62 -21 -107 2 -160 24
-51 63 -73 129 -73 67 0 112 17 112 42 0 16 -4 19 -22 14 -93 -29 -162 -13
-184 40 -8 19 -14 36 -14 39 0 3 52 5 116 5 l117 0 -6 49 c-3 27 -11 58 -18
69 -25 40 -84 62 -139 52z m89 -66 c12 -15 21 -35 21 -45 0 -17 -9 -19 -85
-19 -79 0 -85 1 -85 20 0 64 109 95 149 44z"/>
<path d="M18220 3088 c-14 -5 -35 -18 -46 -29 l-22 -20 -25 25 c-34 34 -106
37 -137 6 -11 -11 -22 -20 -25 -20 -3 0 -5 9 -5 20 0 15 -7 20 -25 20 l-25 0
0 -150 0 -150 25 0 c25 0 25 1 25 83 0 137 20 177 89 177 50 0 61 -28 61 -152
0 -107 0 -108 24 -108 24 0 24 1 28 111 3 102 5 112 27 130 28 22 69 25 96 5
17 -12 20 -30 23 -130 4 -115 4 -116 28 -116 24 0 24 2 24 93 0 94 -10 150
-33 181 -16 22 -76 36 -107 24z"/>
<path d="M13355 3065 c-32 -31 -34 -87 -5 -112 11 -10 48 -27 83 -38 54 -17
62 -24 65 -47 6 -47 -43 -57 -151 -32 -26 6 -28 4 -25 -17 4 -27 30 -37 106
-38 64 -1 105 18 121 58 25 59 -2 92 -99 121 -60 18 -70 24 -70 43 0 13 5 28
12 35 14 14 87 16 122 2 23 -9 26 -7 26 14 0 30 -16 36 -96 36 -56 0 -68 -4
-89 -25z"/>
<path d="M13691 3077 c-76 -39 -99 -163 -46 -244 22 -33 74 -53 132 -52 72 1
97 11 101 38 3 20 1 23 -15 16 -10 -4 -44 -9 -75 -12 -53 -5 -59 -4 -87 25
-17 17 -31 40 -31 51 0 20 5 21 114 21 l113 0 -4 43 c-7 57 -27 94 -63 112
-35 18 -106 19 -139 2z m127 -47 c12 -12 22 -32 22 -45 0 -25 -1 -25 -85 -25
-79 0 -85 1 -85 20 0 12 11 32 25 45 31 32 91 34 123 5z"/>
<path d="M13979 3081 c-2 -6 -3 -74 -1 -151 3 -127 5 -140 21 -140 16 0 19 12
23 105 4 93 7 108 28 130 27 28 75 33 106 11 16 -13 19 -29 22 -130 4 -115 4
-116 28 -116 24 0 24 1 24 105 0 158 -22 195 -113 195 -31 0 -49 -6 -62 -20
-22 -25 -33 -26 -31 -3 1 20 -39 32 -45 14z"/>
<path d="M14587 3069 c-40 -31 -57 -70 -57 -136 0 -70 23 -112 73 -136 63 -30
198 -15 192 21 -1 11 -9 16 -21 14 -11 -2 -48 -4 -82 -5 -58 -2 -66 0 -88 26
-13 15 -24 37 -24 48 0 18 8 19 109 19 61 0 112 4 115 9 4 5 1 32 -5 60 -15
72 -52 101 -127 101 -42 -1 -64 -6 -85 -21z m133 -29 c19 -10 43 -64 33 -74
-11 -11 -173 -7 -173 5 0 16 21 53 39 66 19 15 75 17 101 3z"/>
<path d="M14890 2940 l0 -150 25 0 25 0 0 104 c0 89 3 107 21 130 16 20 29 26
59 26 60 0 70 -22 70 -152 l0 -108 25 0 25 0 0 105 c0 157 -22 195 -111 195
-30 0 -50 -6 -66 -22 l-23 -21 0 21 c0 17 -6 22 -25 22 l-25 0 0 -150z"/>
<path d="M15282 3070 c-88 -54 -82 -223 9 -272 62 -33 169 -19 169 23 0 16 -4
20 -17 14 -71 -28 -137 -11 -159 41 -26 63 -9 140 35 164 25 13 82 13 115 0
23 -9 26 -7 26 14 0 29 -16 36 -88 36 -40 0 -67 -6 -90 -20z"/>
<path d="M15575 3059 c-41 -36 -60 -93 -50 -155 12 -80 71 -125 162 -123 72 1
97 11 101 38 3 21 1 23 -20 17 -54 -15 -79 -18 -113 -12 -41 8 -75 40 -75 73
0 23 2 23 110 23 l110 0 0 38 c0 46 -29 103 -61 119 -13 7 -47 13 -76 13 -44
0 -58 -5 -88 -31z m154 -35 c12 -15 21 -35 21 -45 0 -17 -9 -19 -85 -19 -79 0
-85 1 -85 20 0 64 109 95 149 44z"/>
<path d="M16288 3075 c-33 -19 -68 -90 -68 -141 0 -92 65 -155 159 -153 80 1
105 10 109 38 3 21 1 23 -20 17 -107 -32 -188 -6 -188 59 l0 25 111 0 112 0
-6 53 c-5 43 -13 58 -42 85 -30 28 -42 32 -87 32 -29 -1 -65 -7 -80 -15z m137
-50 c14 -13 25 -33 25 -45 0 -19 -6 -20 -85 -20 -83 0 -85 0 -85 24 0 60 99
88 145 41z"/>
<path d="M16554 3073 c32 -98 106 -277 119 -284 9 -5 25 -5 39 0 21 8 53 82
126 289 3 7 -5 12 -21 12 -27 0 -27 0 -102 -203 -10 -26 -20 -46 -22 -44 -2 2
-23 58 -46 123 -40 110 -46 119 -71 122 -23 3 -27 0 -22 -15z"/>
<path d="M17607 3060 c-84 -73 -67 -226 29 -266 68 -28 184 -11 184 28 0 15
-4 18 -17 14 -31 -12 -101 -19 -127 -12 -34 8 -66 44 -66 73 0 23 2 23 113 23
l113 0 -6 48 c-11 87 -51 122 -140 122 -40 0 -55 -5 -83 -30z m150 -32 c13
-12 23 -32 23 -45 0 -22 -3 -23 -85 -23 -79 0 -85 1 -85 20 0 60 99 93 147 48z"/>
<path d="M18846 3069 c-40 -31 -58 -75 -57 -136 1 -99 56 -154 153 -152 76 1
102 11 106 37 3 21 1 22 -25 15 -15 -4 -52 -8 -81 -8 -46 0 -57 4 -78 28 -13
15 -24 37 -24 48 0 18 8 19 115 19 103 0 115 2 115 18 0 39 -24 97 -50 124
-25 24 -36 28 -88 28 -45 0 -66 -5 -86 -21z m134 -29 c19 -10 43 -64 33 -74
-11 -11 -173 -7 -173 5 0 16 21 53 39 66 19 15 75 17 101 3z"/>
<path d="M19850 2940 l0 -150 25 0 25 0 0 150 0 150 -25 0 -25 0 0 -150z"/>
<path d="M20000 2940 l0 -150 25 0 c25 0 25 1 25 83 0 137 20 177 87 177 60 0
68 -16 71 -144 4 -115 4 -116 28 -116 24 0 24 1 24 98 0 113 -12 165 -43 187
-31 22 -103 19 -138 -6 l-29 -20 0 20 c0 16 -6 21 -25 21 l-25 0 0 -150z"/>
<path d="M20392 3074 c-12 -8 -29 -28 -37 -44 -20 -38 -19 -133 1 -176 30 -62
109 -82 172 -44 36 22 36 21 21 -32 -17 -62 -67 -78 -156 -52 -20 5 -23 3 -23
-19 0 -24 4 -26 57 -33 78 -9 130 9 158 56 17 31 20 56 23 198 l4 162 -26 0
c-20 0 -26 -5 -26 -21 l0 -20 -26 20 c-33 26 -109 28 -142 5z m125 -39 c31
-22 47 -85 33 -135 -15 -57 -63 -84 -115 -64 -46 18 -62 140 -24 188 24 30 71
35 106 11z"/>
<path d="M5388 3063 c-19 -5 -23 -20 -10 -40 8 -13 52 -7 52 7 0 15 -12 40
-19 39 -3 -1 -14 -3 -23 -6z"/>
<path d="M5253 3022 c-24 -4 -27 -10 -17 -36 7 -17 39 -22 48 -7 12 19 -9 46
-31 43z"/>
<path d="M5103 2972 c-7 -4 -10 -17 -6 -30 4 -18 10 -21 27 -16 27 8 26 6 19
32 -6 23 -19 27 -40 14z"/>
<path d="M12300 2940 c0 -18 7 -20 75 -20 68 0 75 2 75 20 0 18 -7 20 -75 20
-68 0 -75 -2 -75 -20z"/>
<path d="M15860 2940 c0 -19 5 -21 72 -18 60 2 73 6 76 21 3 15 -6 17 -72 17
-70 0 -76 -2 -76 -20z"/>
<path d="M4968 2933 c-19 -5 -23 -20 -9 -42 12 -18 54 -4 47 16 -3 8 -6 19 -6
24 0 9 -4 10 -32 2z"/>
<path d="M4816 2882 c-3 -5 -3 -18 0 -29 4 -15 11 -19 25 -16 24 7 31 17 23
37 -6 17 -39 22 -48 8z"/>
<path d="M4688 2843 c-19 -5 -23 -20 -9 -42 12 -18 54 -4 47 16 -3 8 -6 19 -6
24 0 9 -4 10 -32 2z"/>
<path d="M4536 2791 c-10 -16 5 -41 25 -41 14 0 19 7 19 25 0 18 -5 25 -19 25
-11 0 -22 -4 -25 -9z"/>
<path d="M10160 2715 l-64 -65 -233 0 -233 0 0 -40 0 -40 228 0 228 0 64 -65
c35 -36 69 -65 75 -65 6 0 40 29 75 65 l64 65 228 0 228 0 0 40 0 40 -232 0
-232 0 -66 65 -66 65 -64 -65z"/>
<path d="M4401 2751 c-8 -5 -11 -16 -6 -30 5 -17 12 -20 28 -15 28 8 27 6 20
32 -6 23 -19 27 -42 13z"/>
<path d="M4267 2712 c-29 -6 -18 -47 13 -47 19 0 24 4 22 20 -5 26 -13 32 -35
27z"/>
<path d="M4115 2660 c-3 -5 -4 -19 0 -29 8 -27 47 -16 43 13 -3 23 -32 34 -43
16z"/>
<path d="M3984 2622 c-18 -6 -20 -11 -13 -31 6 -15 14 -21 25 -17 9 3 18 6 20
6 2 0 4 11 4 25 0 26 -2 27 -36 17z"/>
<path d="M12370 2380 l0 -210 25 0 25 0 0 210 0 210 -25 0 -25 0 0 -210z"/>
<path d="M12574 2580 c-21 -8 -44 -56 -44 -91 0 -14 -7 -19 -25 -19 -18 0 -25
-5 -25 -20 0 -15 7 -20 25 -20 l25 0 0 -135 0 -135 25 0 25 0 0 135 0 135 40
0 c33 0 40 3 40 20 0 17 -7 20 -40 20 -36 0 -40 3 -40 24 0 34 26 56 66 56 27
0 34 4 34 20 0 17 -6 20 -42 19 -24 0 -53 -4 -64 -9z"/>
<path d="M13770 2560 c0 -25 4 -30 25 -30 21 0 25 5 25 30 0 25 -4 30 -25 30
-21 0 -25 -5 -25 -30z"/>
<path d="M13965 2565 c-17 -16 -25 -35 -25 -60 0 -31 -3 -35 -25 -35 -33 0
-35 -37 -2 -42 22 -3 22 -6 22 -136 l0 -132 28 0 27 0 0 135 0 135 40 0 c33 0
40 3 40 20 0 17 -7 20 -40 20 -38 0 -40 2 -40 30 0 32 22 50 64 50 19 0 26 5
26 20 0 17 -7 20 -45 20 -35 0 -52 -6 -70 -25z"/>
<path d="M14120 2560 c0 -25 4 -30 25 -30 21 0 25 5 25 30 0 25 -4 30 -25 30
-21 0 -25 -5 -25 -30z"/>
<path d="M15140 2560 c0 -25 4 -30 25 -30 21 0 25 5 25 30 0 25 -4 30 -25 30
-21 0 -25 -5 -25 -30z"/>
<path d="M3834 2565 c-10 -25 3 -44 25 -38 29 7 29 53 1 53 -11 0 -23 -7 -26
-15z"/>
<path d="M14920 2510 c0 -29 -4 -40 -15 -40 -8 0 -15 -9 -15 -20 0 -11 7 -20
15 -20 12 0 15 -17 15 -94 0 -101 12 -151 40 -166 10 -6 41 -10 69 -10 44 0
51 3 51 20 0 17 -7 20 -39 20 -62 0 -71 16 -71 131 l0 99 55 0 c48 0 55 2 55
20 0 18 -7 20 -55 20 l-55 0 0 40 c0 36 -2 40 -25 40 -22 0 -25 -4 -25 -40z"/>
<path d="M3699 2532 c-12 -5 -14 -13 -8 -29 9 -25 16 -27 37 -14 15 9 13 43
-3 47 -5 1 -17 -1 -26 -4z"/>
<path d="M11440 2440 l0 -80 -75 0 c-68 0 -75 -2 -75 -20 0 -18 7 -20 75 -20
l75 0 0 -75 c0 -72 1 -75 23 -75 22 0 24 4 24 53 1 106 -6 97 78 97 68 0 75 2
75 20 0 18 -7 20 -75 20 -85 0 -79 -9 -78 108 1 48 -1 52 -23 52 -23 0 -24 -2
-24 -80z"/>
<path d="M3550 2464 c0 -21 4 -25 23 -22 14 2 23 11 25 26 3 18 -1 22 -22 22
-21 0 -26 -5 -26 -26z"/>
<path d="M11796 2469 c-48 -8 -76 -39 -76 -85 0 -44 30 -70 96 -84 51 -11 84
-31 84 -51 0 -5 -10 -19 -21 -30 -18 -18 -29 -20 -68 -15 -97 12 -96 13 -93
-9 5 -28 4 -27 80 -33 80 -5 127 13 143 56 23 60 -5 93 -101 122 -60 18 -70
24 -70 43 0 13 5 28 12 35 15 15 102 16 129 2 16 -9 19 -7 19 14 0 26 -6 29
-70 38 -14 2 -43 1 -64 -3z"/>
<path d="M12116 2468 c-71 -15 -107 -67 -108 -153 -1 -98 56 -155 155 -155 71
0 107 13 107 40 0 17 -4 19 -27 13 -16 -5 -52 -8 -81 -8 -46 0 -57 4 -78 28
-13 15 -24 37 -24 48 0 18 8 19 115 19 128 0 125 -2 104 72 -21 78 -81 113
-163 96z m94 -58 c11 -11 20 -24 20 -29 0 -5 3 -16 6 -25 5 -14 -6 -16 -85
-16 -58 0 -91 4 -91 11 0 16 21 53 39 66 26 20 88 16 111 -7z"/>
<path d="M14375 2470 c-77 -16 -115 -65 -115 -148 0 -105 50 -162 142 -162 64
0 98 14 98 41 0 16 -4 19 -17 14 -10 -4 -36 -9 -59 -12 -76 -10 -121 45 -111
134 7 66 43 96 106 91 25 -3 53 -6 61 -9 9 -2 16 4 18 19 2 12 0 22 -5 22 -4
1 -26 4 -48 8 -22 5 -53 5 -70 2z"/>
<path d="M12841 2462 c2 -5 29 -75 59 -156 l54 -146 32 0 c30 0 34 4 54 58 38
98 90 243 90 247 0 3 -11 5 -24 5 -25 0 -25 0 -97 -195 l-22 -59 -32 84 c-17
47 -38 103 -46 125 -12 32 -20 41 -43 43 -15 2 -27 -1 -25 -6z"/>
<path d="M13255 2459 c-11 -6 -31 -26 -45 -46 -20 -29 -25 -49 -25 -98 0 -102
53 -155 157 -155 73 0 108 13 108 41 0 17 -4 20 -22 15 -106 -32 -188 -6 -188
59 l0 25 110 0 110 0 0 36 c0 49 -24 96 -59 117 -32 19 -113 22 -146 6z m134
-55 c12 -15 21 -35 21 -45 0 -17 -9 -19 -85 -19 -79 0 -85 1 -85 20 0 64 109
95 149 44z"/>
<path d="M13540 2320 l0 -150 25 0 c25 0 25 1 25 83 0 141 19 177 94 177 29 0
36 4 36 20 0 17 -7 20 -39 20 -24 0 -48 -8 -65 -21 l-26 -20 0 20 c0 16 -6 21
-25 21 l-25 0 0 -150z"/>
<path d="M13770 2320 l0 -150 25 0 25 0 0 150 0 150 -25 0 -25 0 0 -150z"/>
<path d="M14120 2320 l0 -150 25 0 25 0 0 150 0 150 -25 0 -25 0 0 -150z"/>
<path d="M14608 2463 c-11 -3 -18 -14 -18 -28 0 -22 3 -24 26 -15 44 17 112
12 134 -10 36 -36 26 -50 -37 -50 -79 0 -124 -24 -140 -73 -16 -49 3 -102 42
-117 43 -16 100 -12 128 10 25 20 25 20 30 0 3 -12 14 -20 27 -20 21 0 22 2
18 126 l-3 126 -33 29 c-29 26 -39 29 -95 28 -34 -1 -70 -3 -79 -6z m159 -180
c-15 -92 -147 -118 -147 -29 0 49 23 63 109 65 l44 1 -6 -37z"/>
<path d="M15140 2320 l0 -150 25 0 25 0 0 150 0 150 -25 0 -25 0 0 -150z"/>
<path d="M15339 2455 c-42 -23 -62 -76 -57 -156 3 -62 7 -73 35 -101 26 -26
42 -32 87 -36 94 -8 146 46 146 151 0 102 -47 157 -134 157 -28 -1 -63 -7 -77
-15z m132 -51 c20 -22 24 -36 24 -91 0 -59 -3 -67 -28 -89 -35 -30 -68 -31
-102 -1 -29 24 -43 92 -31 142 17 66 92 87 137 39z"/>
<path d="M15630 2320 l0 -150 25 0 c25 0 25 1 25 83 0 137 20 176 93 177 34 0
40 -4 53 -35 9 -22 14 -69 14 -130 0 -95 0 -95 25 -95 25 0 25 0 25 98 0 113
-12 165 -43 187 -31 22 -103 19 -138 -6 l-29 -20 0 20 c0 16 -6 21 -25 21
l-25 0 0 -150z"/>
<path d="M3419 2443 c-11 -3 -15 -12 -11 -29 3 -17 9 -23 19 -20 8 3 19 6 25
6 12 0 6 43 -7 45 -5 2 -17 1 -26 -2z"/>
<path d="M3268 2394 c-9 -9 3 -44 16 -44 22 0 39 18 33 34 -6 15 -38 22 -49
10z"/>
<path d="M1533 2348 c-43 -11 -69 -48 -84 -115 -19 -94 5 -196 55 -228 30 -20
94 -22 126 -5 36 19 60 86 60 170 0 75 -22 148 -50 165 -24 15 -76 21 -107 13z
m61 -39 c31 -15 47 -59 48 -136 2 -115 -38 -170 -100 -141 -70 34 -65 263 6
281 9 3 18 5 19 6 1 0 13 -4 27 -10z"/>
<path d="M3134 2352 c-7 -4 -8 -15 -3 -29 11 -29 51 -20 47 11 -3 22 -25 31
-44 18z"/>
<path d="M12660 2320 c0 -18 7 -20 75 -20 68 0 75 2 75 20 0 18 -7 20 -75 20
-68 0 -75 -2 -75 -20z"/>
<path d="M2997 2313 c-11 -3 -16 -10 -13 -20 3 -8 6 -19 6 -24 0 -11 21 -11
39 0 13 8 7 52 -7 50 -4 -1 -15 -3 -25 -6z"/>
<path d="M2850 2241 c0 -25 3 -28 25 -23 14 2 25 8 25 12 0 22 -14 40 -31 40
-14 0 -19 -7 -19 -29z"/>
<path d="M2717 2223 c-11 -3 -16 -10 -13 -20 3 -8 6 -19 6 -24 0 -11 21 -11
39 0 13 8 7 52 -7 50 -4 -1 -15 -3 -25 -6z"/>
<path d="M1840 2170 c0 -5 20 -10 45 -10 25 0 45 5 45 10 0 6 -20 10 -45 10
-25 0 -45 -4 -45 -10z"/>
<path d="M2700 1605 c0 -25 5 -45 10 -45 6 0 10 20 10 45 0 25 -4 45 -10 45
-5 0 -10 -20 -10 -45z"/>
<path d="M7080 1605 c0 -25 5 -45 10 -45 6 0 10 20 10 45 0 25 -4 45 -10 45
-5 0 -10 -20 -10 -45z"/>
<path d="M11480 1605 c0 -25 5 -45 10 -45 6 0 10 20 10 45 0 25 -4 45 -10 45
-5 0 -10 -20 -10 -45z"/>
<path d="M15880 1605 c0 -25 5 -45 10 -45 6 0 10 20 10 45 0 25 -4 45 -10 45
-5 0 -10 -20 -10 -45z"/>
<path d="M20270 1605 c0 -25 5 -45 10 -45 6 0 10 20 10 45 0 25 -4 45 -10 45
-5 0 -10 -20 -10 -45z"/>
<path d="M1789 1387 c-39 -84 -48 -172 -25 -250 20 -67 45 -116 68 -131 29
-18 29 -1 1 60 -25 53 -28 70 -27 164 0 92 3 112 26 163 26 55 26 57 7 57 -15
0 -28 -17 -50 -63z"/>
<path d="M3850 1441 c0 -6 4 -13 10 -16 5 -3 19 -38 31 -77 28 -92 23 -197
-14 -280 -20 -44 -22 -58 -12 -62 18 -6 29 9 59 75 46 106 43 206 -10 317 -18
36 -31 52 -45 52 -10 0 -19 -4 -19 -9z"/>
<path d="M6504 1389 c-26 -56 -29 -72 -29 -163 0 -90 3 -107 28 -158 25 -50
52 -77 64 -64 3 3 -8 35 -23 73 -23 57 -28 82 -28 153 1 81 5 98 49 203 5 13
2 17 -12 17 -14 0 -28 -18 -49 -61z"/>
<path d="M8570 1447 c0 -3 9 -26 19 -51 11 -24 25 -72 32 -105 13 -70 2 -152
-33 -234 -12 -26 -19 -50 -16 -53 13 -13 38 13 64 68 26 54 29 71 29 157 0 87
-3 102 -30 156 -17 34 -38 61 -47 63 -10 2 -18 1 -18 -1z"/>
<path d="M10762 1417 c-61 -104 -68 -232 -18 -344 25 -55 50 -82 64 -69 2 3
-6 31 -19 63 -20 48 -24 75 -24 163 0 93 3 111 27 163 25 52 25 57 8 57 -10 0
-27 -15 -38 -33z"/>
<path d="M12815 1433 c67 -159 70 -258 14 -377 -24 -50 -24 -55 2 -49 49 13
96 181 79 276 -14 76 -59 167 -83 167 -14 0 -17 -4 -12 -17z"/>
<path d="M15144 1389 c-26 -56 -29 -72 -29 -163 0 -90 3 -107 28 -158 25 -50
52 -77 64 -64 3 3 -8 35 -23 73 -23 57 -28 82 -28 153 1 81 5 98 49 203 5 13
2 17 -12 17 -14 0 -28 -18 -49 -61z"/>
<path d="M17537 1393 c46 -101 43 -242 -8 -347 -23 -47 -22 -45 -6 -42 26 4
40 20 65 75 21 46 26 71 26 146 1 81 -2 97 -31 158 -24 50 -37 67 -52 67 -19
0 -19 -2 6 -57z"/>
<path d="M19071 1431 c-11 -11 -23 -36 -27 -55 -4 -26 -11 -36 -25 -36 -12 0
-19 -7 -19 -20 0 -13 7 -20 20 -20 19 0 20 -7 20 -115 l0 -115 25 0 25 0 0
115 0 115 35 0 c28 0 35 4 35 20 0 16 -7 20 -36 20 -34 0 -35 1 -32 33 3 29 6
32 43 37 27 3 41 10 43 23 5 26 -81 24 -107 -2z"/>
<path d="M19520 1260 c0 -183 1 -190 20 -190 19 0 20 7 20 174 0 96 3 181 6
190 5 12 0 16 -20 16 l-26 0 0 -190z"/>
<path d="M19660 1259 c0 -188 0 -190 21 -187 20 3 21 8 22 190 l2 188 -22 0
-23 0 0 -191z"/>
<path d="M19850 1418 c-60 -98 -67 -244 -16 -350 26 -54 49 -77 61 -58 3 5 -3
27 -14 48 -27 53 -44 155 -36 216 4 28 18 78 31 110 28 70 28 66 9 66 -8 0
-24 -15 -35 -32z"/>
<path d="M21425 1433 c67 -159 70 -262 14 -375 -24 -46 -24 -57 -1 -54 24 3
70 99 82 170 11 71 0 141 -37 219 -19 40 -32 57 -46 57 -14 0 -17 -4 -12 -17z"/>
<path d="M2853 1430 c-76 -17 -122 -82 -123 -175 0 -117 45 -185 124 -185 59
0 90 15 112 55 24 44 15 119 -18 152 -37 36 -100 42 -140 13 l-31 -23 7 34
c14 73 71 110 141 90 31 -8 35 -7 35 10 0 12 -9 21 -27 25 -16 3 -32 7 -38 8
-5 1 -25 -1 -42 -4z m57 -180 c29 -29 27 -94 -5 -125 -31 -32 -59 -32 -90 0
-52 51 -23 145 45 145 17 0 39 -9 50 -20z"/>
<path d="M3663 1423 c-26 -22 -227 -352 -220 -359 14 -14 45 23 109 127 39 63
86 140 105 171 38 62 41 92 6 61z"/>
<path d="M7850 1429 c-38 -8 -80 -49 -80 -79 0 -31 22 -69 43 -76 18 -6 18 -8
-10 -30 -37 -29 -48 -65 -33 -110 15 -44 54 -64 125 -64 49 0 60 4 86 29 41
41 41 102 0 140 l-28 26 23 18 c30 22 33 84 7 116 -22 25 -86 40 -133 30z m65
-39 c51 -19 49 -94 -3 -107 -30 -7 -71 6 -85 28 -15 23 0 68 26 79 29 12 31
12 62 0z m27 -167 c18 -16 24 -57 12 -87 -9 -23 -66 -39 -97 -27 -48 19 -59
77 -21 115 20 21 83 20 106 -1z"/>
<path d="M8378 1427 c-26 -21 -220 -349 -211 -358 4 -4 13 -5 19 -1 9 6 184
285 212 339 14 25 2 38 -20 20z"/>
<path d="M12624 1432 c-11 -7 -209 -326 -219 -354 -5 -13 -2 -15 13 -12 23 7
237 353 225 365 -4 4 -13 5 -19 1z"/>
<path d="M16494 1428 c-57 -15 -93 -81 -94 -173 0 -66 15 -118 46 -155 23 -26
32 -30 78 -30 85 0 126 56 126 172 0 144 -57 212 -156 186z m73 -52 c25 -22
28 -31 31 -101 5 -96 -9 -148 -44 -164 -65 -29 -110 42 -101 161 6 76 19 105
50 118 32 13 33 12 64 -14z"/>
<path d="M16835 1434 c-5 -1 -22 -5 -38 -8 -39 -9 -67 -41 -67 -77 0 -39 16
-68 43 -78 22 -9 22 -9 -5 -21 -50 -23 -62 -115 -20 -152 42 -38 142 -41 178
-7 44 41 41 125 -5 158 -17 13 -17 14 6 37 28 28 30 79 5 112 -16 21 -73 42
-97 36z m62 -56 c18 -15 16 -58 -4 -80 -20 -22 -61 -23 -91 -2 -32 22 -27 73
8 91 26 14 65 9 87 -9z m1 -154 c29 -20 30 -74 2 -99 -46 -42 -130 -11 -130
47 0 58 75 89 128 52z"/>
<path d="M17331 1430 c-23 -13 -229 -354 -221 -364 5 -4 13 -5 19 -2 8 5 156
238 224 353 9 15 -5 24 -22 13z"/>
<path d="M20690 1423 c-53 -27 -72 -70 -73 -161 -2 -134 34 -192 120 -192 58
0 79 12 103 59 21 42 28 137 15 204 -9 44 -54 97 -83 97 -11 0 -26 2 -34 5 -7
3 -29 -3 -48 -12z m81 -33 c36 0 58 -170 30 -238 -26 -62 -96 -63 -121 -1 -18
43 -19 156 -1 197 14 34 45 54 69 46 8 -2 18 -4 23 -4z"/>
<path d="M21234 1432 c-23 -16 -224 -356 -216 -364 6 -6 15 -3 24 6 21 20 218
342 218 355 0 13 -10 14 -26 3z"/>
<path d="M1476 1408 c-15 -13 -29 -37 -32 -55 -5 -27 -1 -37 24 -62 l30 -30
-25 -16 c-34 -23 -45 -59 -33 -106 14 -49 49 -69 125 -69 49 0 60 4 86 29 41
41 41 102 0 140 l-28 26 22 17 c28 21 36 58 19 96 -16 40 -41 52 -108 52 -43
0 -61 -5 -80 -22z m130 -33 c57 -57 -26 -127 -94 -79 -35 24 -29 69 13 92 31
18 54 14 81 -13z m7 -152 c49 -56 -3 -136 -76 -118 -83 21 -64 135 22 135 23
0 44 -7 54 -17z"/>
<path d="M1987 1410 c-35 -27 -51 -81 -50 -165 0 -116 41 -177 117 -177 50 0
73 10 96 42 49 68 40 250 -14 297 -36 31 -112 32 -149 3z m104 -20 c37 0 58
-169 30 -238 -26 -62 -96 -63 -121 -1 -18 43 -19 156 -1 197 14 34 45 54 69
46 8 -2 18 -4 23 -4z"/>
<path d="M2462 1405 c-33 -28 -52 -86 -52 -161 0 -112 46 -174 129 -174 80 0
121 62 121 181 0 69 -15 115 -48 152 -35 37 -107 39 -150 2z m114 -28 c25 -22
28 -31 32 -108 4 -95 -5 -130 -44 -155 -24 -16 -29 -16 -53 -3 -82 46 -60 289
26 289 6 0 24 -11 39 -23z"/>
<path d="M3073 1423 c-7 -2 -13 -13 -13 -24 0 -16 5 -17 33 -11 49 11 103 8
121 -7 19 -16 21 -67 4 -78 -7 -4 -33 -10 -58 -13 -61 -7 -62 -33 -3 -40 24
-3 52 -13 63 -22 26 -23 27 -79 0 -103 -21 -19 -85 -25 -137 -12 -29 8 -33 6
-33 -11 0 -24 25 -32 103 -32 89 0 137 37 137 106 0 35 -16 61 -48 78 -15 9
-21 15 -14 16 24 0 52 40 52 73 0 61 -40 87 -130 86 -36 0 -71 -3 -77 -6z"/>
<path d="M3381 1404 c-30 -38 -28 -98 4 -129 34 -35 78 -33 117 5 27 27 30 36
25 73 -7 52 -36 77 -87 77 -30 0 -43 -6 -59 -26z m89 -14 c37 -37 18 -110 -29
-110 -26 0 -41 21 -41 59 0 32 23 71 42 71 4 0 17 -9 28 -20z"/>
<path d="M5575 1421 c-21 -4 -31 -13 -33 -29 -3 -22 -2 -23 42 -17 l46 7 0
-136 0 -136 -40 0 c-33 0 -40 -3 -40 -20 0 -19 7 -20 105 -20 98 0 105 1 105
20 0 17 -7 20 -40 20 l-40 0 0 160 0 160 -37 -1 c-21 -1 -51 -4 -68 -8z"/>
<path d="M5880 1402 c-16 -16 -34 -49 -40 -73 -14 -52 -8 -154 11 -194 50
-101 180 -83 210 30 16 56 6 174 -16 212 -35 60 -117 72 -165 25z m107 -26
c25 -22 28 -31 31 -101 3 -43 -1 -94 -7 -115 -13 -44 -51 -66 -82 -49 -59 31
-67 211 -13 270 23 25 37 24 71 -5z"/>
<path d="M6188 1403 c-37 -39 -48 -74 -48 -153 0 -121 39 -181 121 -182 85 -1
124 56 124 182 -1 129 -36 180 -125 180 -37 0 -51 -5 -72 -27z m109 -18 c27
-19 43 -73 42 -140 0 -68 -19 -116 -51 -134 -25 -14 -29 -14 -55 5 -35 26 -46
71 -40 163 4 66 7 77 31 98 32 27 44 28 73 8z"/>
<path d="M6696 1404 c-31 -32 -46 -80 -46 -154 0 -73 14 -117 47 -152 36 -38
107 -40 150 -4 71 60 71 252 1 311 -43 36 -115 35 -152 -1z m106 -15 c29 -16
48 -70 48 -139 0 -105 -42 -166 -97 -141 -67 31 -72 241 -6 280 23 13 30 13
55 0z"/>
<path d="M7132 1413 c3 -15 17 -18 90 -21 86 -3 87 -3 78 -25 -41 -102 -110
-283 -110 -289 0 -4 11 -8 24 -8 21 0 30 17 90 173 36 94 66 175 66 180 0 4
-54 7 -121 7 -109 0 -120 -2 -117 -17z"/>
<path d="M7485 1407 c-38 -32 -39 -91 -3 -122 l25 -22 -29 -24 c-25 -20 -30
-31 -30 -66 1 -74 36 -103 122 -103 87 0 123 31 122 104 0 33 -6 46 -30 65
l-29 24 25 22 c36 31 35 90 -3 122 -21 18 -38 23 -85 23 -47 0 -64 -5 -85 -23z
m120 -19 c48 -22 41 -91 -10 -104 -58 -14 -102 21 -89 72 10 39 53 53 99 32z
m25 -175 c23 -29 21 -66 -6 -93 -18 -18 -86 -19 -108 -1 -25 21 -21 86 6 105
36 25 83 20 108 -11z"/>
<path d="M8107 1418 c-65 -50 -26 -168 55 -168 70 0 108 109 55 158 -26 25
-83 30 -110 10z m75 -25 c21 -19 25 -82 6 -101 -19 -19 -45 -14 -62 10 -22 31
-20 64 4 88 24 24 28 25 52 3z"/>
<path d="M10145 1425 c-5 -2 -22 -6 -37 -9 -20 -5 -28 -13 -28 -27 0 -18 4
-20 45 -13 l45 6 0 -136 0 -136 -40 0 c-33 0 -40 -3 -40 -20 0 -19 7 -20 105
-20 98 0 105 1 105 20 0 17 -7 20 -40 20 l-40 0 0 160 0 160 -32 -1 c-18 0
-37 -2 -43 -4z"/>
<path d="M10390 1250 l0 -180 26 0 26 0 -4 80 c-2 44 -1 79 3 78 4 -2 44 -38
87 -80 67 -66 85 -78 113 -78 l34 0 -99 99 c-54 54 -94 100 -88 102 5 2 47 39
92 82 80 76 81 77 50 77 -26 0 -47 -14 -108 -71 -49 -45 -78 -66 -82 -58 -4 6
-5 38 -3 70 5 58 5 59 -21 59 l-26 0 0 -180z"/>
<path d="M10900 1410 c0 -18 7 -20 85 -20 47 0 85 -2 85 -5 0 -5 -60 -164 -99
-263 l-21 -53 26 3 c24 3 32 15 71 113 24 61 55 140 68 178 l25 67 -120 0
c-113 0 -120 -1 -120 -20z"/>
<path d="M11406 1404 c-17 -18 -26 -38 -26 -58 0 -37 24 -76 48 -76 12 0 9 -5
-10 -17 -56 -35 -62 -123 -10 -164 23 -18 37 -20 94 -17 77 4 104 22 114 75 8
43 -9 84 -44 106 -19 12 -22 17 -10 17 24 0 48 39 48 76 0 51 -46 84 -119 84
-50 0 -62 -4 -85 -26z m141 -26 c18 -15 16 -58 -4 -80 -20 -23 -76 -24 -98 -2
-24 25 -16 76 15 91 26 14 65 9 87 -9z m3 -158 c45 -45 11 -114 -55 -114 -43
0 -75 28 -75 66 0 39 32 68 75 68 22 0 43 -8 55 -20z"/>
<path d="M11726 1405 c-35 -32 -36 -86 -2 -119 l23 -24 -28 -25 c-41 -36 -41
-97 0 -138 26 -25 37 -29 86 -29 74 0 111 20 125 68 14 45 2 84 -33 107 l-25
16 29 29 c38 37 38 73 0 111 -26 26 -37 29 -89 29 -49 0 -64 -4 -86 -25z m142
-32 c31 -41 -2 -93 -60 -93 -37 0 -60 26 -56 64 5 53 82 72 116 29z m0 -153
c29 -27 28 -65 -3 -95 -26 -27 -54 -31 -88 -14 -30 16 -37 28 -37 66 0 58 82
86 128 43z"/>
<path d="M12057 1410 c-34 -27 -51 -80 -51 -160 0 -123 38 -180 121 -180 58 0
79 12 103 60 42 81 18 259 -38 289 -34 18 -106 13 -135 -9z m97 -21 c34 -16
50 -61 50 -139 0 -109 -38 -163 -97 -141 -33 13 -51 62 -51 140 -1 92 19 134
71 150 1 1 13 -4 27 -10z"/>
<path d="M12340 1408 c-49 -53 -10 -158 59 -158 56 0 86 43 82 118 -3 58 -98
86 -141 40z m100 -38 c14 -55 -22 -107 -57 -84 -23 14 -32 52 -20 87 8 24 14
28 40 25 24 -2 33 -9 37 -28z"/>
<path d="M14225 1425 c-5 -2 -22 -6 -37 -9 -20 -5 -28 -13 -28 -27 0 -18 4
-20 45 -13 l45 6 0 -136 0 -136 -40 0 c-33 0 -40 -3 -40 -20 0 -19 7 -20 105
-20 98 0 105 1 105 20 0 17 -7 20 -40 20 l-40 0 0 160 0 160 -32 -1 c-18 0
-37 -2 -43 -4z"/>
<path d="M14496 1400 c-63 -76 -61 -236 4 -302 24 -23 37 -28 77 -28 41 0 54
5 76 28 33 35 47 79 47 152 0 74 -15 122 -46 154 -22 21 -36 26 -79 26 -47 0
-56 -4 -79 -30z m121 -24 c25 -21 28 -32 31 -97 5 -92 -6 -137 -41 -162 -55
-42 -107 20 -107 125 0 71 16 124 43 143 29 20 41 19 74 -9z"/>
<path d="M14780 1250 l0 -180 25 0 c25 0 25 1 25 87 l0 88 88 -88 c76 -76 92
-87 122 -87 l35 0 -97 98 -97 97 87 80 c81 76 84 80 59 83 -22 3 -44 -11 -112
-74 l-85 -76 0 76 c0 74 -1 76 -25 76 l-25 0 0 -180z"/>
<path d="M15300 1410 c0 -18 7 -20 86 -20 78 0 85 -2 79 -17 -3 -10 -28 -74
-55 -143 -26 -69 -51 -133 -55 -143 -7 -16 -3 -18 20 -15 25 3 32 14 91 168
35 90 64 170 64 177 0 10 -28 13 -115 13 -108 0 -115 -1 -115 -20z"/>
<path d="M15646 1405 c-35 -32 -36 -86 -2 -120 23 -23 24 -25 7 -37 -49 -35
-55 -106 -12 -149 26 -25 37 -29 86 -29 66 0 106 18 123 55 21 45 15 75 -23
111 -31 29 -33 33 -17 39 21 6 42 45 42 76 0 11 -13 34 -29 50 -26 26 -37 29
-89 29 -49 0 -64 -4 -86 -25z m141 -27 c21 -17 16 -65 -9 -82 -51 -36 -112 -9
-106 48 5 50 72 70 115 34z m3 -158 c42 -42 7 -120 -55 -120 -12 0 -34 9 -49
21 -53 42 -21 119 49 119 22 0 43 -8 55 -20z"/>
<path d="M16125 1407 c-38 -32 -39 -91 -3 -122 l25 -22 -29 -24 c-25 -20 -30
-31 -30 -66 1 -74 36 -103 122 -103 87 0 123 31 122 104 0 33 -6 46 -30 65
l-29 24 25 22 c36 31 35 90 -3 122 -21 18 -38 23 -85 23 -47 0 -64 -5 -85 -23z
m120 -19 c48 -22 41 -91 -10 -104 -58 -14 -102 21 -89 72 10 39 53 53 99 32z
m25 -175 c23 -29 21 -66 -6 -93 -18 -18 -86 -19 -108 -1 -25 21 -21 86 6 105
36 25 83 20 108 -11z"/>
<path d="M17046 1411 c-10 -11 -20 -38 -23 -60 -5 -35 -2 -44 25 -71 45 -45
101 -40 127 11 21 39 19 82 -6 113 -26 33 -96 37 -123 7z m92 -23 c28 -28 7
-108 -28 -108 -42 0 -64 56 -40 101 12 21 50 25 68 7z"/>
<path d="M20035 1421 c-21 -4 -31 -13 -33 -29 -3 -22 -2 -23 42 -17 l46 7 0
-136 0 -136 -40 0 c-33 0 -40 -3 -40 -20 0 -19 7 -20 105 -20 98 0 105 1 105
20 0 17 -7 20 -40 20 l-40 0 0 160 0 160 -37 -1 c-21 -1 -51 -4 -68 -8z"/>
<path d="M20353 1412 c-34 -26 -53 -84 -53 -161 0 -123 39 -182 122 -183 84
-1 133 80 123 205 -6 75 -23 117 -57 141 -30 21 -107 20 -135 -2z m114 -34
c17 -14 33 -74 33 -128 0 -107 -41 -164 -100 -140 -39 16 -53 64 -48 165 3 70
6 79 32 101 28 25 54 25 83 2z"/>
<path d="M20952 1407 c-16 -16 -22 -36 -22 -66 0 -78 74 -117 134 -70 22 17
26 28 26 70 0 62 -23 89 -78 89 -27 0 -45 -7 -60 -23z m99 -40 c14 -54 -23
-103 -60 -80 -21 13 -30 52 -18 86 8 24 14 28 40 25 24 -2 32 -9 38 -31z"/>
<path d="M19200 1240 c0 -105 13 -151 45 -164 30 -11 90 -6 113 10 20 14 22
14 22 0 0 -10 9 -16 25 -16 l25 0 0 135 0 135 -25 0 c-25 0 -25 0 -25 -94 0
-75 -4 -98 -17 -114 -27 -32 -65 -37 -94 -14 -22 19 -24 28 -27 121 -4 91 -6
101 -23 101 -17 0 -19 -8 -19 -100z"/>
<path d="M3642 1240 c-40 -37 -41 -119 -3 -154 40 -36 109 -18 131 33 37 91
-61 183 -128 121z m82 -26 c36 -35 3 -134 -39 -118 -51 20 -43 134 10 134 7 0
21 -7 29 -16z"/>
<path d="M8355 1235 c-29 -28 -33 -59 -19 -123 5 -27 63 -55 91 -45 43 15 63
45 63 95 0 60 -31 98 -80 98 -19 0 -40 -9 -55 -25z m83 -17 c20 -25 18 -90 -3
-111 -21 -21 -51 -10 -65 23 -18 44 5 100 40 100 10 0 22 -6 28 -12z"/>
<path d="M12595 1235 c-19 -18 -25 -35 -25 -68 0 -78 53 -119 118 -91 55 23
63 126 14 164 -34 27 -77 25 -107 -5z m91 -31 c24 -36 9 -98 -24 -102 -35 -5
-52 15 -52 62 0 67 44 90 76 40z"/>
<path d="M17303 1236 c-24 -21 -28 -31 -27 -77 1 -63 25 -89 84 -89 47 0 80
36 80 87 0 91 -73 134 -137 79z m87 -25 c14 -27 13 -84 -2 -99 -32 -32 -78 -3
-78 50 0 55 58 90 80 49z"/>
<path d="M21205 1234 c-48 -52 -24 -154 39 -166 39 -8 82 16 95 53 34 99 -67
185 -134 113z m91 -30 c24 -36 9 -98 -24 -102 -33 -5 -52 15 -52 55 0 71 43
98 76 47z"/>
<path d="M2270 1100 c0 -25 4 -30 25 -30 21 0 25 5 25 30 0 25 -4 30 -25 30
-21 0 -25 -5 -25 -30z"/>
<path d="M6990 1100 c0 -25 4 -30 25 -30 21 0 25 5 25 30 0 25 -4 30 -25 30
-21 0 -25 -5 -25 -30z"/>
<path d="M11230 1100 c0 -25 4 -30 25 -30 21 0 25 5 25 30 0 25 -4 30 -25 30
-21 0 -25 -5 -25 -30z"/>
<path d="M15950 1100 c0 -25 4 -30 25 -30 21 0 25 5 25 30 0 25 -4 30 -25 30
-21 0 -25 -5 -25 -30z"/>
<path d="M9089 788 c-32 -68 -34 -80 -34 -173 0 -108 22 -187 66 -234 35 -38
41 -10 14 58 -50 122 -44 266 16 383 l19 38 -23 0 c-20 0 -30 -12 -58 -72z"/>
<path d="M12440 816 c68 -153 64 -261 -16 -443 -4 -7 3 -11 17 -10 17 1 30 18
56 73 47 100 55 195 24 292 -29 88 -55 132 -80 132 -20 0 -20 0 -1 -44z"/>
<path d="M13196 838 c-23 -20 -33 -44 -35 -85 -1 -7 -10 -13 -21 -13 -13 0
-20 -7 -20 -20 0 -13 7 -20 20 -20 18 0 20 -8 22 -132 3 -129 4 -133 25 -136
22 -3 22 -1 25 130 l3 133 43 3 c34 3 42 7 42 23 0 16 -7 19 -45 19 -40 0 -45
2 -45 23 0 35 14 48 59 54 31 4 41 10 41 24 0 29 -80 26 -114 -3z"/>
<path d="M14319 855 c-8 -35 -1 -50 22 -53 23 -3 26 1 26 27 0 26 -4 31 -24
31 -12 0 -23 -2 -24 -5z"/>
<path d="M14820 830 c0 -25 4 -30 25 -30 21 0 25 5 25 30 0 25 -4 30 -25 30
-21 0 -25 -5 -25 -30z"/>
<path d="M16050 780 l0 -81 -21 20 c-26 24 -63 31 -105 20 -85 -24 -120 -163
-64 -254 35 -56 115 -73 164 -34 21 17 26 18 26 5 0 -10 9 -16 25 -16 l25 0 0
210 0 210 -25 0 c-25 0 -25 -1 -25 -80z m-45 -86 c26 -10 45 -59 45 -114 0
-44 -4 -56 -30 -82 -26 -25 -36 -29 -63 -24 -57 11 -87 83 -66 159 15 55 63
80 114 61z"/>
<path d="M6025 826 c-56 -24 -74 -113 -32 -161 15 -18 45 -32 97 -46 41 -11
80 -25 87 -31 21 -17 16 -72 -8 -94 -27 -25 -120 -25 -166 -1 l-33 18 0 -30
c0 -26 5 -30 44 -40 137 -34 236 12 236 111 0 59 -35 92 -127 117 -42 11 -83
27 -91 35 -22 22 -6 75 26 87 27 11 106 7 150 -6 34 -11 31 32 -4 45 -36 14
-144 12 -179 -4z"/>
<path d="M7030 780 c0 -33 -3 -40 -20 -40 -13 0 -20 -7 -20 -19 0 -10 9 -21
20 -24 18 -5 20 -14 20 -115 0 -107 1 -111 26 -131 19 -15 41 -21 75 -21 42 0
49 3 49 20 0 16 -7 20 -34 20 -65 0 -66 1 -66 121 l0 109 50 0 c43 0 50 3 50
20 0 17 -7 20 -50 20 l-50 0 0 40 c0 36 -2 40 -25 40 -22 0 -25 -4 -25 -40z"/>
<path d="M11170 780 c0 -29 -4 -40 -15 -40 -8 0 -15 -9 -15 -20 0 -11 7 -20
15 -20 12 0 15 -17 15 -94 0 -149 18 -176 116 -176 37 0 44 3 44 20 0 17 -7
20 -39 20 -64 0 -72 16 -69 129 l3 96 53 3 c44 3 52 6 52 23 0 16 -7 19 -55
19 l-55 0 0 40 c0 36 -2 40 -25 40 -22 0 -25 -4 -25 -40z"/>
<path d="M13530 780 c0 -33 -3 -40 -20 -40 -13 0 -20 -7 -20 -19 0 -10 9 -21
20 -24 18 -5 20 -14 20 -112 0 -99 2 -107 25 -130 19 -20 34 -25 75 -25 43 0
50 3 50 20 0 16 -7 20 -34 20 -65 0 -66 1 -66 121 l0 109 50 0 c43 0 50 3 50
20 0 17 -7 20 -50 20 l-50 0 0 40 c0 36 -2 40 -25 40 -22 0 -25 -4 -25 -40z"/>
<path d="M16548 814 c-3 -3 -4 -21 -1 -40 4 -29 2 -34 -16 -34 -14 0 -21 -6
-21 -20 0 -11 7 -20 15 -20 8 0 15 -6 15 -12 0 -63 10 -206 15 -219 9 -23 49
-39 100 -39 38 0 45 3 45 20 0 16 -7 20 -37 20 -66 0 -67 4 -65 148 l2 82 50
0 c43 0 50 3 50 19 0 17 -8 20 -52 23 l-53 3 2 38 c2 33 0 37 -21 37 -12 0
-25 -2 -28 -6z"/>
<path d="M6800 742 c-14 -2 -37 -13 -52 -24 -28 -19 -28 -19 -28 1 0 16 -6 21
-25 21 l-25 0 0 -150 0 -150 24 0 c24 0 24 2 28 104 3 94 5 107 27 130 16 17
35 26 55 26 62 0 76 -30 76 -159 l0 -101 25 0 c25 0 25 0 25 98 0 103 -11 162
-34 181 -20 16 -66 28 -96 23z"/>
<path d="M8035 742 c-38 -5 -81 -36 -100 -72 -8 -16 -15 -55 -15 -86 0 -98 54
-154 149 -154 57 0 91 15 91 41 0 16 -4 19 -17 14 -34 -14 -88 -17 -115 -6
-64 24 -79 151 -24 198 29 25 85 31 130 13 24 -9 26 -7 26 15 0 25 -8 29 -70
37 -14 2 -38 2 -55 0z"/>
<path d="M8332 739 c-90 -19 -140 -139 -94 -229 27 -54 74 -80 141 -79 83 1
105 10 109 42 l3 27 -35 -15 c-88 -37 -176 -4 -176 66 0 18 8 19 110 19 l110
0 0 36 c0 94 -74 153 -168 133z m97 -65 c12 -15 21 -35 21 -45 0 -17 -9 -19
-85 -19 -79 0 -85 1 -85 20 0 64 109 95 149 44z"/>
<path d="M8642 740 c-64 -15 -90 -61 -66 -119 11 -25 22 -33 71 -46 77 -21 87
-28 91 -58 6 -46 -59 -58 -156 -31 -21 6 -23 4 -20 -17 4 -27 29 -37 106 -38
83 -2 121 27 122 90 0 46 -21 65 -101 89 -78 24 -94 43 -63 74 18 18 88 21
128 6 24 -9 26 -7 26 15 0 18 -7 26 -22 29 -55 11 -85 13 -116 6z"/>
<path d="M9710 742 c-34 -5 -77 -38 -95 -72 -21 -40 -19 -128 3 -169 29 -53
74 -73 154 -68 69 4 98 18 98 44 0 11 -7 13 -32 6 -18 -4 -57 -8 -85 -8 -59 0
-87 19 -98 68 l-7 27 116 0 c130 0 129 -1 106 81 -18 64 -84 102 -160 91z m75
-48 c16 -6 45 -54 45 -74 0 -6 -34 -10 -90 -10 -101 0 -108 7 -64 59 26 31 68
41 109 25z"/>
<path d="M10575 740 c-51 -11 -76 -30 -96 -73 -55 -121 12 -237 137 -237 69 0
114 17 114 42 0 17 -4 19 -26 14 -119 -30 -166 -15 -189 62 -6 22 -6 22 109
22 l116 0 0 30 c0 39 -21 90 -48 113 -26 23 -78 35 -117 27z m94 -66 c12 -15
21 -35 21 -45 0 -17 -9 -19 -91 -19 -89 0 -90 0 -84 23 19 66 114 91 154 41z"/>
<path d="M11805 741 c-76 -22 -112 -113 -85 -213 22 -79 122 -116 184 -67 l26
20 0 -30 c0 -17 -10 -42 -24 -58 -19 -22 -32 -27 -67 -28 -24 0 -54 4 -66 8
-20 7 -23 5 -23 -16 0 -19 6 -26 31 -31 57 -11 103 -6 137 14 53 32 62 68 62
245 l0 155 -25 0 c-19 0 -25 -5 -25 -22 0 -20 -1 -20 -19 -4 -23 21 -78 35
-106 27z m80 -47 c39 -15 59 -118 33 -167 -38 -73 -138 -55 -154 28 -18 100
42 169 121 139z"/>
<path d="M12172 739 c-90 -19 -140 -139 -94 -229 27 -54 74 -80 141 -79 83 1
105 10 109 42 l3 27 -35 -15 c-88 -37 -176 -4 -176 66 0 18 8 19 110 19 l110
0 0 36 c0 94 -74 153 -168 133z m97 -65 c12 -15 21 -35 21 -45 0 -17 -9 -19
-85 -19 -79 0 -85 1 -85 20 0 64 109 95 149 44z"/>
<path d="M14065 745 c-5 -2 -27 -6 -47 -10 -32 -5 -38 -10 -38 -30 0 -22 2
-24 26 -15 66 25 154 2 154 -41 0 -16 -7 -19 -47 -19 -114 0 -159 -35 -150
-116 7 -64 25 -79 96 -79 44 0 64 5 80 19 19 17 21 17 21 3 0 -11 8 -17 25
-17 l25 0 0 104 c0 119 -10 156 -48 178 -28 16 -79 28 -97 23z m95 -184 c0
-44 -44 -91 -85 -91 -41 0 -65 22 -65 59 0 44 25 58 108 60 40 1 42 0 42 -28z"/>
<path d="M14585 743 c-11 -3 -30 -14 -42 -26 l-23 -20 0 21 c0 17 -6 22 -25
22 l-25 0 0 -150 0 -150 25 0 25 0 0 104 c0 89 3 107 21 130 16 20 29 26 59
26 60 0 70 -22 70 -152 l0 -108 25 0 25 0 0 109 c0 60 -4 121 -10 135 -15 41
-77 70 -125 59z"/>
<path d="M15403 740 c-64 -14 -93 -60 -93 -145 0 -98 44 -155 120 -155 33 0
70 15 82 34 15 22 21 -6 9 -44 -19 -63 -85 -85 -165 -54 -12 5 -16 0 -16 -19
0 -19 6 -26 31 -31 88 -17 158 4 186 56 14 27 18 64 21 196 l4 162 -26 0 c-20
0 -26 -5 -26 -22 0 -20 -1 -20 -19 -4 -26 23 -70 34 -108 26z m91 -59 c43 -48
40 -153 -7 -186 -29 -20 -70 -19 -98 4 -19 15 -24 30 -27 82 -3 54 -1 68 18
92 27 33 87 38 114 8z"/>
<path d="M16300 744 c-90 -14 -90 -14 -90 -39 0 -22 2 -24 26 -15 66 25 154 2
154 -41 0 -16 -7 -19 -56 -19 -93 0 -144 -38 -144 -105 0 -37 19 -72 47 -84
39 -18 97 -13 127 10 21 17 26 18 26 5 0 -10 9 -16 25 -16 l25 0 0 110 c0 117
-12 160 -47 175 -28 11 -77 21 -93 19z m90 -185 c0 -20 -10 -40 -29 -60 -51
-50 -121 -33 -121 30 0 44 25 58 108 60 41 1 42 0 42 -30z"/>
<path d="M16860 744 c-8 -2 -32 -5 -52 -9 -32 -5 -38 -10 -38 -30 0 -22 2 -24
26 -15 43 17 109 12 127 -8 33 -36 22 -52 -33 -52 -60 0 -114 -20 -129 -48
-21 -39 -13 -97 16 -127 25 -24 33 -27 81 -23 36 3 57 11 67 24 13 17 14 17
15 2 0 -12 8 -18 25 -18 l25 0 0 106 c0 145 -14 173 -100 196 -8 2 -22 3 -30
2z m80 -179 c0 -33 -25 -81 -45 -89 -54 -20 -98 7 -93 58 4 37 35 56 96 56 38
0 42 -2 42 -25z"/>
<path d="M6365 708 c-27 -25 -38 -46 -47 -88 -10 -49 -9 -60 10 -102 11 -25
32 -54 47 -64 59 -38 205 -26 205 18 0 13 -5 18 -14 15 -94 -36 -196 -5 -196
60 0 23 2 23 110 23 l110 0 0 40 c0 85 -49 130 -140 130 -43 0 -55 -5 -85 -32z
m152 -30 c13 -12 23 -32 23 -45 0 -22 -3 -23 -85 -23 -79 0 -85 1 -85 20 0 60
99 93 147 48z"/>
<path d="M7286 719 c-38 -30 -59 -76 -60 -134 -1 -97 60 -156 159 -154 74 1
99 11 103 38 3 20 1 23 -15 16 -10 -4 -44 -9 -75 -12 -53 -5 -59 -4 -87 25
-17 17 -31 40 -31 51 0 20 5 21 114 21 l115 0 -5 38 c-14 96 -51 132 -137 132
-40 0 -61 -5 -81 -21z m144 -41 c11 -12 20 -32 20 -45 0 -22 -3 -23 -85 -23
-76 0 -85 2 -85 19 0 10 12 30 26 45 35 34 94 36 124 4z"/>
<path d="M7581 591 l0 -151 29 0 29 0 -1 106 c0 97 1 107 23 130 19 20 31 24
63 22 56 -4 66 -28 66 -155 l0 -103 25 0 25 0 0 105 c0 157 -22 195 -112 195
-30 0 -51 -6 -66 -20 -26 -25 -34 -25 -30 -2 2 12 -5 18 -24 20 l-27 3 0 -150z"/>
<path d="M9261 531 l1 -211 28 0 29 0 -4 75 c-2 41 -1 75 2 75 2 0 16 -9 30
-20 30 -24 83 -26 122 -5 81 41 86 225 9 279 -33 24 -109 21 -142 -5 -26 -20
-27 -20 -24 -3 2 14 -4 20 -24 22 l-27 3 0 -210z m188 152 c44 -36 47 -143 5
-188 -49 -53 -127 -17 -136 63 -10 83 24 142 82 142 15 0 38 -8 49 -17z"/>
<path d="M9960 589 c0 -150 0 -150 23 -147 21 3 22 8 27 111 5 99 7 111 29
128 14 11 39 19 61 19 33 0 37 3 33 20 -7 27 -62 27 -97 -1 l-26 -20 0 20 c0
16 -6 21 -25 21 l-25 0 0 -151z"/>
<path d="M10207 710 c-76 -67 -67 -210 16 -260 57 -35 162 -25 170 16 4 21 2
24 -17 17 -11 -5 -43 -8 -69 -8 -68 0 -97 33 -97 111 0 48 4 60 29 85 23 23
38 29 71 29 23 0 50 -5 61 -10 16 -9 19 -7 19 14 0 30 -16 36 -90 36 -52 0
-64 -4 -93 -30z"/>
<path d="M10820 590 l0 -150 24 0 c24 0 24 1 28 111 3 102 5 112 27 130 30 24
83 25 104 1 14 -15 17 -40 17 -130 l0 -112 25 0 25 0 0 119 c0 114 -1 121 -26
150 -22 27 -32 31 -74 31 -33 0 -55 -6 -74 -21 l-26 -20 0 20 c0 16 -6 21 -25
21 l-25 0 0 -150z"/>
<path d="M11418 733 c-11 -3 -18 -14 -18 -28 0 -22 3 -24 26 -15 44 17 112 12
134 -10 37 -37 26 -47 -50 -52 -83 -4 -121 -27 -131 -79 -9 -41 11 -93 42
-109 30 -17 114 -7 139 15 18 16 20 16 20 2 0 -11 8 -17 25 -17 l25 0 0 105
c0 158 -27 196 -135 194 -33 -1 -68 -3 -77 -6z m159 -180 c-13 -83 -121 -116
-148 -46 -19 51 20 81 105 82 l49 1 -6 -37z"/>
<path d="M12862 726 c-42 -23 -62 -65 -62 -134 0 -104 47 -162 132 -162 89 0
138 55 138 152 0 104 -46 158 -134 158 -28 -1 -61 -6 -74 -14z m133 -58 c24
-29 27 -38 23 -92 -4 -49 -9 -63 -32 -83 -37 -31 -71 -29 -107 6 -24 25 -29
37 -29 81 0 52 19 104 42 113 38 16 77 6 103 -25z"/>
<path d="M13740 590 l0 -150 24 0 c24 0 24 2 28 104 3 94 5 107 27 130 18 19
35 26 63 26 31 0 38 3 38 20 0 17 -7 20 -39 20 -24 0 -48 -8 -65 -21 l-26 -20
0 20 c0 16 -6 21 -25 21 l-25 0 0 -150z"/>
<path d="M14320 735 c-1 -3 -1 -69 -1 -147 -1 -143 -1 -143 23 -146 l23 -3 0
151 c0 149 0 150 -22 150 -13 0 -23 -2 -23 -5z"/>
<path d="M14820 590 l0 -150 25 0 25 0 0 150 0 150 -25 0 -25 0 0 -150z"/>
<path d="M14970 590 l0 -150 25 0 c25 0 25 1 25 89 0 94 7 127 35 154 17 17
71 23 92 9 23 -14 33 -64 33 -158 0 -94 0 -94 25 -94 25 0 25 0 25 98 0 113
-12 165 -43 187 -31 22 -103 19 -138 -6 l-29 -20 0 20 c0 16 -6 21 -25 21
l-25 0 0 -150z"/>
</g>
</svg>
